WIPSHDC-Missing-JP-Sans-Heavy.ufo
<glyph name="uni4E0D" format="2">
	<advance width="1000" height="1000"/>
	<unicode hex="4E0D"/>
	<unicode hex="F967"/>
	<note>
		cid09496
	</note>
	<outline>
		<contour>
			<point x="940" y="790" type="line"/>
			<point x="62" y="790" type="line"/>
			<point x="62" y="641" type="line"/>
			<point x="940" y="641" type="line"/>
		</contour>
		<contour>
			<point x="647" y="475" type="curve"/>
			<point x="540" y="370" type="line"/>
			<point x="668" y="293"/>
			<point x="791" y="201"/>
			<point x="859" y="131" type="curve"/>
			<point x="975" y="253" type="line"/>
			<point x="903" y="320"/>
			<point x="776" y="406"/>
		</contour>
		<contour>
			<point x="652" y="677" type="curve"/>
			<point x="489" y="734" type="line"/>
			<point x="411" y="561"/>
			<point x="239" y="367"/>
			<point x="27" y="270" type="curve"/>
			<point x="58" y="237"/>
			<point x="104" y="176"/>
			<point x="127" y="137" type="curve"/>
			<point x="359" y="257"/>
			<point x="538" y="464"/>
		</contour>
		<contour>
			<point x="581" y="626" type="line"/>
			<point x="421" y="466" type="line"/>
			<point x="421" y="-95" type="line"/>
			<point x="581" y="-95" type="line"/>
			<point x="581" y="625" type="line"/>
		</contour>
	</outline>
</glyph>
<glyph name="uni4E14" format="2">
	<advance width="1000" height="1000"/>
	<unicode hex="4E14"/>
	<note>
		cid09510
	</note>
	<outline>
		<contour>
			<point x="956" y="87" type="line"/>
			<point x="46" y="87" type="line"/>
			<point x="46" y="-55" type="line"/>
			<point x="956" y="-55" type="line"/>
		</contour>
		<contour>
			<point x="691" y="565" type="line"/>
			<point x="286" y="565" type="line"/>
			<point x="286" y="431" type="line"/>
			<point x="691" y="431" type="line"/>
		</contour>
		<contour>
			<point x="691" y="331" type="line"/>
			<point x="286" y="331" type="line"/>
			<point x="286" y="191" type="line"/>
			<point x="691" y="191" type="line"/>
		</contour>
		<contour>
			<point x="799" y="804" type="line"/>
			<point x="203" y="804" type="line"/>
			<point x="203" y="16" type="line"/>
			<point x="348" y="16" type="line"/>
			<point x="348" y="664" type="line"/>
			<point x="647" y="664" type="line"/>
			<point x="647" y="16" type="line"/>
			<point x="799" y="16" type="line"/>
		</contour>
	</outline>
</glyph>
<glyph name="uni4E15" format="2">
	<advance width="1000" height="1000"/>
	<unicode hex="4E15"/>
	<note>
		cid09511
	</note>
	<outline>
		<contour>
			<point x="923" y="801" type="line"/>
			<point x="76" y="801" type="line"/>
			<point x="76" y="666" type="line"/>
			<point x="923" y="666" type="line"/>
		</contour>
		<contour>
			<point x="951" y="73" type="line"/>
			<point x="50" y="73" type="line"/>
			<point x="50" y="-65" type="line"/>
			<point x="951" y="-65" type="line"/>
		</contour>
		<contour>
			<point x="666" y="684" type="curve"/>
			<point x="521" y="745" type="line"/>
			<point x="418" y="589"/>
			<point x="231" y="457"/>
			<point x="36" y="385" type="curve"/>
			<point x="68" y="355"/>
			<point x="121" y="290"/>
			<point x="143" y="257" type="curve"/>
			<point x="338" y="348"/>
			<point x="541" y="501"/>
		</contour>
		<contour>
			<point x="697" y="564" type="curve"/>
			<point x="592" y="464" type="line"/>
			<point x="694" y="401"/>
			<point x="797" y="321"/>
			<point x="858" y="258" type="curve"/>
			<point x="971" y="372" type="line"/>
			<point x="905" y="432"/>
			<point x="799" y="506"/>
		</contour>
		<contour>
			<point x="537" y="642" type="line"/>
			<point x="424" y="529" type="line"/>
			<point x="424" y="98" type="line"/>
			<point x="575" y="98" type="line"/>
			<point x="575" y="630" type="line"/>
		</contour>
	</outline>
</glyph>
<glyph name="uni4E3B" format="2">
	<advance width="1000" height="1000"/>
	<unicode hex="4E3B"/>
	<note>
		cid09562
	</note>
	<outline>
		<contour>
			<point x="905" y="652" type="line"/>
			<point x="90" y="652" type="line"/>
			<point x="90" y="510" type="line"/>
			<point x="905" y="510" type="line"/>
		</contour>
		<contour>
			<point x="854" y="372" type="line"/>
			<point x="147" y="372" type="line"/>
			<point x="147" y="232" type="line"/>
			<point x="854" y="232" type="line"/>
		</contour>
		<contour>
			<point x="954" y="78" type="line"/>
			<point x="49" y="78" type="line"/>
			<point x="49" y="-65" type="line"/>
			<point x="954" y="-65" type="line"/>
		</contour>
		<contour>
			<point x="581" y="536" type="line"/>
			<point x="420" y="536" type="line"/>
			<point x="420" y="1" type="line"/>
			<point x="581" y="1" type="line"/>
		</contour>
		<contour>
			<point x="415" y="854" type="curve"/>
			<point x="302" y="740" type="line"/>
			<point x="418" y="703"/>
			<point x="524" y="655"/>
			<point x="577" y="614" type="curve"/>
			<point x="690" y="739" type="line"/>
			<point x="637" y="777"/>
			<point x="531" y="822"/>
		</contour>
	</outline>
</glyph>
<glyph name="uni4E4D" format="2">
	<advance width="1000" height="1000"/>
	<unicode hex="4E4D"/>
	<note>
		cid09585
	</note>
	<outline>
		<contour>
			<point x="410" y="814" type="curve"/>
			<point x="256" y="854" type="line"/>
			<point x="205" y="698"/>
			<point x="115" y="538"/>
			<point x="18" y="443" type="curve"/>
			<point x="56" y="422"/>
			<point x="123" y="377"/>
			<point x="153" y="351" type="curve"/>
			<point x="247" y="461"/>
			<point x="347" y="640"/>
		</contour>
		<contour>
			<point x="957" y="693" type="line"/>
			<point x="272" y="693" type="line"/>
			<point x="201" y="551" type="line"/>
			<point x="957" y="551" type="line"/>
		</contour>
		<contour>
			<point x="560" y="643" type="line"/>
			<point x="406" y="643" type="line"/>
			<point x="406" y="-95" type="line"/>
			<point x="560" y="-95" type="line"/>
		</contour>
		<contour>
			<point x="891" y="477" type="line"/>
			<point x="503" y="477" type="line"/>
			<point x="503" y="338" type="line"/>
			<point x="891" y="338" type="line"/>
		</contour>
		<contour>
			<point x="916" y="261" type="line"/>
			<point x="503" y="261" type="line"/>
			<point x="503" y="119" type="line"/>
			<point x="916" y="119" type="line"/>
		</contour>
	</outline>
</glyph>
<glyph name="uni4E4E" format="2">
	<advance width="1000" height="1000"/>
	<unicode hex="4E4E"/>
	<note>
		cid09586
	</note>
	<outline>
		<contour>
			<point x="890" y="721" type="curve"/>
			<point x="819" y="855" type="line"/>
			<point x="626" y="811"/>
			<point x="351" y="785"/>
			<point x="96" y="776" type="curve"/>
			<point x="111" y="741"/>
			<point x="128" y="683"/>
			<point x="131" y="644" type="curve"/>
			<point x="382" y="649"/>
			<point x="669" y="671"/>
		</contour>
		<contour>
			<point x="961" y="387" type="line"/>
			<point x="42" y="387" type="line"/>
			<point x="42" y="242" type="line"/>
			<point x="961" y="242" type="line"/>
		</contour>
		<contour>
			<point x="581" y="79" type="curve" smooth="yes"/>
			<point x="581" y="728" type="line"/>
			<point x="423" y="728" type="line"/>
			<point x="423" y="81" type="line" smooth="yes"/>
			<point x="423" y="61"/>
			<point x="414" y="54"/>
			<point x="391" y="54" type="curve" smooth="yes"/>
			<point x="367" y="54"/>
			<point x="282" y="54"/>
			<point x="214" y="58" type="curve"/>
			<point x="238" y="18"/>
			<point x="266" y="-50"/>
			<point x="275" y="-93" type="curve"/>
			<point x="375" y="-93"/>
			<point x="452" y="-89"/>
			<point x="507" y="-66" type="curve" smooth="yes"/>
			<point x="562" y="-44"/>
			<point x="581" y="-5"/>
		</contour>
		<contour>
			<point x="264" y="636" type="curve"/>
			<point x="140" y="590" type="line"/>
			<point x="172" y="527"/>
			<point x="206" y="445"/>
			<point x="216" y="392" type="curve"/>
			<point x="349" y="445" type="line"/>
			<point x="336" y="498"/>
			<point x="299" y="577"/>
		</contour>
		<contour>
			<point x="887" y="605" type="curve"/>
			<point x="730" y="662" type="line"/>
			<point x="711" y="592"/>
			<point x="677" y="510"/>
			<point x="642" y="448" type="curve"/>
			<point x="762" y="395" type="line"/>
			<point x="801" y="454"/>
			<point x="849" y="535"/>
		</contour>
	</outline>
</glyph>
<glyph name="uni4EE3" format="2">
	<advance width="1000" height="1000"/>
	<unicode hex="4EE3"/>
	<note>
		cid09807
	</note>
	<outline>
		<contour>
			<point x="959" y="596" type="line"/>
			<point x="350" y="529" type="line"/>
			<point x="366" y="391" type="line"/>
			<point x="975" y="458" type="line"/>
		</contour>
		<contour>
			<point x="827" y="855" type="curve"/>
			<point x="717" y="788" type="line"/>
			<point x="764" y="737"/>
			<point x="819" y="666"/>
			<point x="840" y="619" type="curve"/>
			<point x="958" y="693" type="line"/>
			<point x="933" y="741"/>
			<point x="875" y="808"/>
		</contour>
		<contour>
			<point x="407" y="802" type="curve"/>
			<point x="268" y="848" type="line"/>
			<point x="209" y="701"/>
			<point x="107" y="555"/>
			<point x="3" y="465" type="curve"/>
			<point x="28" y="429"/>
			<point x="69" y="350"/>
			<point x="83" y="315" type="curve"/>
			<point x="208" y="432"/>
			<point x="332" y="624"/>
		</contour>
		<contour>
			<point x="319" y="698" type="line"/>
			<point x="170" y="549" type="line"/>
			<point x="170" y="-93" type="line"/>
			<point x="321" y="-93" type="line"/>
			<point x="321" y="696" type="line"/>
		</contour>
		<contour>
			<point x="663" y="839" type="curve"/>
			<point x="515" y="839" type="line"/>
			<point x="530" y="276"/>
			<point x="585" y="-67"/>
			<point x="829" y="-92" type="curve" smooth="yes"/>
			<point x="887" y="-96"/>
			<point x="949" y="-53"/>
			<point x="977" y="153" type="curve"/>
			<point x="951" y="167"/>
			<point x="886" y="206"/>
			<point x="858" y="237" type="curve"/>
			<point x="852" y="130"/>
			<point x="842" y="83"/>
			<point x="822" y="85" type="curve"/>
			<point x="717" y="103"/>
			<point x="666" y="423"/>
		</contour>
	</outline>
</glyph>
<glyph name="uni4F5C" format="2">
	<advance width="1000" height="1000"/>
	<unicode hex="4F5C"/>
	<note>
		cid09980
	</note>
	<outline>
		<contour>
			<point x="978" y="694" type="line"/>
			<point x="496" y="694" type="line"/>
			<point x="427" y="556" type="line"/>
			<point x="978" y="556" type="line"/>
		</contour>
		<contour>
			<point x="951" y="473" type="line"/>
			<point x="631" y="473" type="line"/>
			<point x="631" y="341" type="line"/>
			<point x="951" y="341" type="line"/>
		</contour>
		<contour>
			<point x="964" y="251" type="line"/>
			<point x="630" y="251" type="line"/>
			<point x="630" y="116" type="line"/>
			<point x="964" y="116" type="line"/>
		</contour>
		<contour>
			<point x="707" y="648" type="line"/>
			<point x="557" y="648" type="line"/>
			<point x="557" y="-95" type="line"/>
			<point x="707" y="-95" type="line"/>
		</contour>
		<contour>
			<point x="648" y="808" type="curve"/>
			<point x="498" y="847" type="line"/>
			<point x="455" y="703"/>
			<point x="376" y="556"/>
			<point x="288" y="468" type="curve"/>
			<point x="321" y="443"/>
			<point x="381" y="387"/>
			<point x="406" y="359" type="curve"/>
			<point x="500" y="466"/>
			<point x="592" y="640"/>
		</contour>
		<contour>
			<point x="395" y="803" type="curve"/>
			<point x="250" y="850" type="line"/>
			<point x="196" y="706"/>
			<point x="103" y="564"/>
			<point x="6" y="475" type="curve"/>
			<point x="32" y="438"/>
			<point x="75" y="356"/>
			<point x="90" y="319" type="curve"/>
			<point x="209" y="436"/>
			<point x="325" y="627"/>
		</contour>
		<contour>
			<point x="298" y="691" type="line"/>
			<point x="156" y="549" type="line"/>
			<point x="156" y="-93" type="line"/>
			<point x="300" y="-93" type="line"/>
			<point x="300" y="689" type="line"/>
		</contour>
	</outline>
</glyph>
<glyph name="uni4F60" format="2">
	<advance width="1000" height="1000"/>
	<unicode hex="4F60"/>
	<note>
		cid09987
	</note>
	<outline>
		<contour>
			<point x="586" y="819" type="curve"/>
			<point x="443" y="852" type="line"/>
			<point x="409" y="718"/>
			<point x="346" y="583"/>
			<point x="269" y="502" type="curve"/>
			<point x="302" y="480"/>
			<point x="360" y="432"/>
			<point x="386" y="406" type="curve"/>
			<point x="467" y="504"/>
			<point x="542" y="662"/>
		</contour>
		<contour>
			<point x="561" y="388" type="curve"/>
			<point x="422" y="424" type="line"/>
			<point x="401" y="319"/>
			<point x="355" y="207"/>
			<point x="301" y="132" type="curve"/>
			<point x="335" y="115"/>
			<point x="397" y="77"/>
			<point x="424" y="54" type="curve"/>
			<point x="480" y="135"/>
			<point x="533" y="264"/>
		</contour>
		<contour>
			<point x="871" y="683" type="line"/>
			<point x="483" y="683" type="line"/>
			<point x="429" y="549" type="line"/>
			<point x="871" y="549" type="line"/>
		</contour>
		<contour>
			<point x="719" y="63" type="curve" smooth="yes"/>
			<point x="719" y="623" type="line"/>
			<point x="575" y="623" type="line"/>
			<point x="575" y="65" type="line" smooth="yes"/>
			<point x="575" y="52"/>
			<point x="570" y="49"/>
			<point x="557" y="49" type="curve" smooth="yes"/>
			<point x="543" y="49"/>
			<point x="501" y="49"/>
			<point x="462" y="50" type="curve"/>
			<point x="483" y="11"/>
			<point x="505" y="-54"/>
			<point x="511" y="-96" type="curve"/>
			<point x="577" y="-96"/>
			<point x="628" y="-90"/>
			<point x="668" y="-67" type="curve" smooth="yes"/>
			<point x="709" y="-43"/>
			<point x="719" y="-3"/>
		</contour>
		<contour>
			<point x="864" y="430" type="curve"/>
			<point x="734" y="386" type="line"/>
			<point x="781" y="276"/>
			<point x="820" y="147"/>
			<point x="835" y="52" type="curve"/>
			<point x="975" y="101" type="line"/>
			<point x="960" y="195"/>
			<point x="917" y="321"/>
		</contour>
		<contour>
			<point x="852" y="683" type="line"/>
			<point x="833" y="683" type="line"/>
			<point x="833" y="665" type="line"/>
			<point x="828" y="593"/>
			<point x="818" y="501"/>
			<point x="810" y="445" type="curve"/>
			<point x="934" y="423" type="line"/>
			<point x="948" y="486"/>
			<point x="966" y="583"/>
			<point x="977" y="669" type="curve"/>
			<point x="874" y="687" type="line"/>
		</contour>
		<contour>
			<point x="359" y="808" type="curve"/>
			<point x="222" y="851" type="line"/>
			<point x="174" y="713"/>
			<point x="91" y="575"/>
			<point x="5" y="488" type="curve"/>
			<point x="29" y="452"/>
			<point x="68" y="371"/>
			<point x="81" y="335" type="curve"/>
			<point x="190" y="451"/>
			<point x="295" y="637"/>
		</contour>
		<contour>
			<point x="268" y="702" type="line"/>
			<point x="130" y="564" type="line"/>
			<point x="130" y="-94" type="line"/>
			<point x="268" y="-94" type="line"/>
			<point x="268" y="701" type="line"/>
		</contour>
	</outline>
</glyph>
<glyph name="uni51E6" format="2">
	<advance width="1000" height="1000"/>
	<unicode hex="51E6"/>
	<note>
		cid11098
	</note>
	<outline>
		<contour>
			<point x="283" y="834" type="curve"/>
			<point x="139" y="852" type="line"/>
			<point x="123" y="656"/>
			<point x="87" y="463"/>
			<point x="11" y="348" type="curve"/>
			<point x="42" y="323"/>
			<point x="98" y="266"/>
			<point x="119" y="238" type="curve"/>
			<point x="209" y="380"/>
			<point x="258" y="605"/>
		</contour>
		<contour>
			<point x="369" y="697" type="line"/>
			<point x="211" y="697" type="line"/>
			<point x="163" y="576" type="line"/>
			<point x="369" y="576" type="line"/>
		</contour>
		<contour>
			<point x="356" y="697" type="line"/>
			<point x="332" y="697" type="line"/>
			<point x="332" y="670" type="line"/>
			<point x="317" y="343"/>
			<point x="234" y="108"/>
			<point x="50" y="16" type="curve"/>
			<point x="79" y="-12"/>
			<point x="117" y="-66"/>
			<point x="137" y="-103" type="curve"/>
			<point x="357" y="31"/>
			<point x="449" y="267"/>
			<point x="468" y="687" type="curve"/>
			<point x="381" y="700" type="line"/>
		</contour>
		<contour>
			<point x="206" y="566" type="curve"/>
			<point x="99" y="533" type="line"/>
			<point x="201" y="25"/>
			<point x="431" y="-79"/>
			<point x="730" y="-79" type="curve" smooth="yes"/>
			<point x="887" y="-79" type="line"/>
			<point x="920" y="-79" type="line"/>
			<point x="928" y="-40"/>
			<point x="951" y="28"/>
			<point x="972" y="61" type="curve"/>
			<point x="918" y="59"/>
			<point x="784" y="59"/>
			<point x="737" y="59" type="curve" smooth="yes"/>
			<point x="494" y="60"/>
			<point x="297" y="140"/>
		</contour>
		<contour>
			<point x="647" y="607" type="curve" smooth="yes"/>
			<point x="647" y="788" type="line"/>
			<point x="514" y="788" type="line"/>
			<point x="514" y="608" type="line" smooth="yes"/>
			<point x="514" y="488"/>
			<point x="508" y="313"/>
			<point x="429" y="192" type="curve"/>
			<point x="461" y="179"/>
			<point x="521" y="141"/>
			<point x="546" y="119" type="curve"/>
			<point x="632" y="253"/>
			<point x="647" y="465"/>
		</contour>
		<contour>
			<point x="799" y="788" type="line"/>
			<point x="581" y="788" type="line"/>
			<point x="581" y="667" type="line"/>
			<point x="799" y="667" type="line"/>
		</contour>
		<contour>
			<point x="848" y="268" type="curve" smooth="yes"/>
			<point x="848" y="788" type="line"/>
			<point x="711" y="788" type="line"/>
			<point x="711" y="268" type="line" smooth="yes"/>
			<point x="711" y="157"/>
			<point x="732" y="114"/>
			<point x="819" y="114" type="curve" smooth="yes"/>
			<point x="836" y="114"/>
			<point x="853" y="114"/>
			<point x="870" y="114" type="curve" smooth="yes"/>
			<point x="950" y="114"/>
			<point x="971" y="157"/>
			<point x="979" y="332" type="curve"/>
			<point x="948" y="343"/>
			<point x="906" y="366"/>
			<point x="883" y="386" type="curve"/>
			<point x="881" y="257"/>
			<point x="876" y="237"/>
			<point x="868" y="237" type="curve" smooth="yes"/>
			<point x="865" y="237"/>
			<point x="860" y="237"/>
			<point x="857" y="237" type="curve" smooth="yes"/>
			<point x="849" y="237"/>
			<point x="848" y="241"/>
		</contour>
	</outline>
</glyph>
<glyph name="uni5208" format="2">
	<advance width="1000" height="1000"/>
	<unicode hex="5208"/>
	<note>
		cid11147
	</note>
	<outline>
		<contour>
			<point x="692" y="738" type="line"/>
			<point x="549" y="738" type="line"/>
			<point x="549" y="161" type="line"/>
			<point x="692" y="161" type="line"/>
		</contour>
		<contour>
			<point x="939" y="81" type="curve" smooth="yes"/>
			<point x="939" y="854" type="line"/>
			<point x="792" y="854" type="line"/>
			<point x="792" y="82" type="line" smooth="yes"/>
			<point x="792" y="63"/>
			<point x="784" y="57"/>
			<point x="764" y="57" type="curve" smooth="yes"/>
			<point x="743" y="57"/>
			<point x="676" y="57"/>
			<point x="614" y="60" type="curve"/>
			<point x="635" y="18"/>
			<point x="658" y="-51"/>
			<point x="664" y="-94" type="curve"/>
			<point x="758" y="-94"/>
			<point x="830" y="-89"/>
			<point x="877" y="-65" type="curve" smooth="yes"/>
			<point x="924" y="-41"/>
			<point x="939" y="-1"/>
		</contour>
		<contour>
			<point x="469" y="829" type="curve"/>
			<point x="320" y="843" type="line"/>
			<point x="294" y="461"/>
			<point x="186" y="160"/>
			<point x="19" y="4" type="curve"/>
			<point x="59" y="-22"/>
			<point x="114" y="-67"/>
			<point x="143" y="-97" type="curve"/>
			<point x="323" y="77"/>
			<point x="440" y="409"/>
		</contour>
		<contour>
			<point x="124" y="690" type="curve"/>
			<point x="25" y="579" type="line"/>
			<point x="193" y="419"/>
			<point x="351" y="224"/>
			<point x="435" y="75" type="curve"/>
			<point x="547" y="197" type="line"/>
			<point x="461" y="338"/>
			<point x="298" y="528"/>
		</contour>
	</outline>
</glyph>
<glyph name="uni522B" format="2">
	<advance width="1000" height="1000"/>
	<unicode hex="522B"/>
	<note>
		cid11191
	</note>
	<outline>
		<contour>
			<point x="704" y="732" type="line"/>
			<point x="563" y="732" type="line"/>
			<point x="563" y="160" type="line"/>
			<point x="704" y="160" type="line"/>
		</contour>
		<contour>
			<point x="936" y="73" type="curve" smooth="yes"/>
			<point x="936" y="834" type="line"/>
			<point x="792" y="834" type="line"/>
			<point x="792" y="74" type="line" smooth="yes"/>
			<point x="792" y="57"/>
			<point x="786" y="52"/>
			<point x="768" y="52" type="curve" smooth="yes"/>
			<point x="750" y="52"/>
			<point x="694" y="52"/>
			<point x="642" y="55" type="curve"/>
			<point x="662" y="13"/>
			<point x="683" y="-54"/>
			<point x="688" y="-96" type="curve"/>
			<point x="773" y="-96"/>
			<point x="836" y="-91"/>
			<point x="880" y="-67" type="curve" smooth="yes"/>
			<point x="923" y="-43"/>
			<point x="936" y="-3"/>
		</contour>
		<contour>
			<point x="204" y="579" type="line"/>
			<point x="204" y="685" type="line"/>
			<point x="361" y="685" type="line"/>
			<point x="361" y="579" type="line"/>
		</contour>
		<contour>
			<point x="501" y="812" type="line"/>
			<point x="73" y="812" type="line"/>
			<point x="73" y="451" type="line"/>
			<point x="501" y="451" type="line"/>
		</contour>
		<contour>
			<point x="440" y="379" type="line"/>
			<point x="50" y="379" type="line"/>
			<point x="50" y="248" type="line"/>
			<point x="440" y="248" type="line"/>
		</contour>
		<contour>
			<point x="522" y="379" type="curve"/>
			<point x="381" y="379" type="line"/>
			<point x="381" y="357" type="line"/>
			<point x="376" y="147"/>
			<point x="368" y="71"/>
			<point x="354" y="52" type="curve" smooth="yes"/>
			<point x="345" y="42"/>
			<point x="337" y="39"/>
			<point x="324" y="39" type="curve" smooth="yes"/>
			<point x="308" y="39"/>
			<point x="281" y="40"/>
			<point x="250" y="43" type="curve"/>
			<point x="272" y="6"/>
			<point x="287" y="-52"/>
			<point x="289" y="-94" type="curve"/>
			<point x="334" y="-94"/>
			<point x="375" y="-93"/>
			<point x="401" y="-88" type="curve" smooth="yes"/>
			<point x="432" y="-82"/>
			<point x="454" y="-71"/>
			<point x="477" y="-42" type="curve" smooth="yes"/>
			<point x="504" y="-7"/>
			<point x="513" y="92"/>
			<point x="520" y="326" type="curve" smooth="yes"/>
			<point x="521" y="343"/>
			<point x="522" y="379"/>
		</contour>
		<contour>
			<point x="327" y="451" type="curve"/>
			<point x="192" y="451" type="line"/>
			<point x="186" y="232"/>
			<point x="177" y="106"/>
			<point x="18" y="13" type="curve"/>
			<point x="49" y="-12"/>
			<point x="86" y="-59"/>
			<point x="103" y="-95" type="curve"/>
			<point x="287" y="13"/>
			<point x="319" y="189"/>
		</contour>
	</outline>
</glyph>
<glyph name="uni5236" format="2">
	<advance width="1000" height="1000"/>
	<unicode hex="5236"/>
	<note>
		cid11206
	</note>
	<outline>
		<contour>
			<point x="738" y="732" type="line"/>
			<point x="603" y="732" type="line"/>
			<point x="603" y="160" type="line"/>
			<point x="738" y="160" type="line"/>
		</contour>
		<contour>
			<point x="946" y="68" type="curve" smooth="yes"/>
			<point x="946" y="834" type="line"/>
			<point x="807" y="834" type="line"/>
			<point x="807" y="69" type="line" smooth="yes"/>
			<point x="807" y="53"/>
			<point x="801" y="48"/>
			<point x="785" y="48" type="curve" smooth="yes"/>
			<point x="768" y="48"/>
			<point x="718" y="48"/>
			<point x="670" y="50" type="curve"/>
			<point x="688" y="9"/>
			<point x="708" y="-55"/>
			<point x="713" y="-95" type="curve"/>
			<point x="792" y="-95"/>
			<point x="852" y="-90"/>
			<point x="893" y="-67" type="curve" smooth="yes"/>
			<point x="933" y="-43"/>
			<point x="946" y="-5"/>
		</contour>
		<contour>
			<point x="379" y="847" type="line"/>
			<point x="241" y="847" type="line"/>
			<point x="241" y="-94" type="line"/>
			<point x="379" y="-94" type="line"/>
		</contour>
		<contour>
			<point x="559" y="107" type="curve" smooth="yes"/>
			<point x="559" y="353" type="line"/>
			<point x="429" y="353" type="line"/>
			<point x="429" y="110" type="line" smooth="yes"/>
			<point x="429" y="101"/>
			<point x="427" y="99"/>
			<point x="420" y="99" type="curve" smooth="yes"/>
			<point x="413" y="99"/>
			<point x="391" y="99"/>
			<point x="372" y="100" type="curve"/>
			<point x="388" y="65"/>
			<point x="403" y="11"/>
			<point x="406" y="-22" type="curve"/>
			<point x="452" y="-23"/>
			<point x="489" y="-21"/>
			<point x="520" y="-1" type="curve" smooth="yes"/>
			<point x="552" y="20"/>
			<point x="559" y="54"/>
		</contour>
		<contour>
			<point x="494" y="353" type="line"/>
			<point x="62" y="353" type="line"/>
			<point x="62" y="-16" type="line"/>
			<point x="191" y="-16" type="line"/>
			<point x="191" y="224" type="line"/>
			<point x="494" y="224" type="line"/>
		</contour>
		<contour>
			<point x="571" y="530" type="line"/>
			<point x="26" y="530" type="line"/>
			<point x="26" y="399" type="line"/>
			<point x="571" y="399" type="line"/>
		</contour>
		<contour>
			<point x="545" y="728" type="line"/>
			<point x="141" y="728" type="line"/>
			<point x="115" y="597" type="line"/>
			<point x="545" y="597" type="line"/>
		</contour>
		<contour>
			<point x="223" y="811" type="curve"/>
			<point x="89" y="839" type="line"/>
			<point x="78" y="739"/>
			<point x="49" y="636"/>
			<point x="15" y="571" type="curve"/>
			<point x="50" y="559"/>
			<point x="113" y="534"/>
			<point x="143" y="515" type="curve"/>
			<point x="177" y="588"/>
			<point x="208" y="702"/>
		</contour>
	</outline>
</glyph>
<glyph name="uni524D" format="2">
	<advance width="1000" height="1000"/>
	<unicode hex="524D"/>
	<note>
		cid11237
	</note>
	<outline>
		<contour>
			<point x="416" y="356" type="line"/>
			<point x="168" y="356" type="line"/>
			<point x="168" y="251" type="line"/>
			<point x="416" y="251" type="line"/>
		</contour>
		<contour>
			<point x="416" y="206" type="line"/>
			<point x="168" y="206" type="line"/>
			<point x="168" y="101" type="line"/>
			<point x="416" y="101" type="line"/>
		</contour>
		<contour>
			<point x="960" y="707" type="line"/>
			<point x="41" y="707" type="line"/>
			<point x="41" y="576" type="line"/>
			<point x="960" y="576" type="line"/>
		</contour>
		<contour>
			<point x="688" y="508" type="line"/>
			<point x="550" y="508" type="line"/>
			<point x="550" y="98" type="line"/>
			<point x="688" y="98" type="line"/>
		</contour>
		<contour>
			<point x="490" y="36" type="curve" smooth="yes"/>
			<point x="490" y="519" type="line"/>
			<point x="350" y="519" type="line"/>
			<point x="350" y="38" type="line" smooth="yes"/>
			<point x="350" y="27"/>
			<point x="346" y="23"/>
			<point x="334" y="23" type="curve" smooth="yes"/>
			<point x="322" y="22"/>
			<point x="284" y="22"/>
			<point x="255" y="24" type="curve"/>
			<point x="273" y="-8"/>
			<point x="293" y="-62"/>
			<point x="300" y="-98" type="curve"/>
			<point x="359" y="-98"/>
			<point x="405" y="-96"/>
			<point x="442" y="-75" type="curve" smooth="yes"/>
			<point x="479" y="-55"/>
			<point x="490" y="-22"/>
		</contour>
		<contour>
			<point x="895" y="53" type="curve" smooth="yes"/>
			<point x="895" y="534" type="line"/>
			<point x="752" y="534" type="line"/>
			<point x="752" y="55" type="line" smooth="yes"/>
			<point x="752" y="42"/>
			<point x="747" y="38"/>
			<point x="731" y="38" type="curve" smooth="yes"/>
			<point x="715" y="37"/>
			<point x="663" y="37"/>
			<point x="618" y="40" type="curve"/>
			<point x="639" y="3"/>
			<point x="662" y="-58"/>
			<point x="669" y="-97" type="curve"/>
			<point x="740" y="-98"/>
			<point x="796" y="-94"/>
			<point x="839" y="-72" type="curve" smooth="yes"/>
			<point x="883" y="-50"/>
			<point x="895" y="-14"/>
		</contour>
		<contour>
			<point x="415" y="519" type="line"/>
			<point x="101" y="519" type="line"/>
			<point x="101" y="-94" type="line"/>
			<point x="238" y="-94" type="line"/>
			<point x="238" y="398" type="line"/>
			<point x="415" y="398" type="line"/>
		</contour>
		<contour>
			<point x="308" y="848" type="curve"/>
			<point x="169" y="800" type="line"/>
			<point x="202" y="761"/>
			<point x="238" y="707"/>
			<point x="250" y="672" type="curve"/>
			<point x="398" y="723" type="line"/>
			<point x="382" y="761"/>
			<point x="343" y="811"/>
		</contour>
		<contour>
			<point x="842" y="809" type="curve"/>
			<point x="682" y="857" type="line"/>
			<point x="662" y="814"/>
			<point x="625" y="758"/>
			<point x="595" y="720" type="curve"/>
			<point x="727" y="674" type="line"/>
			<point x="759" y="706"/>
			<point x="801" y="755"/>
		</contour>
	</outline>
</glyph>
<glyph name="uni5357" format="2">
	<advance width="1000" height="1000"/>
	<unicode hex="5357"/>
	<note>
		cid11679
	</note>
	<outline>
		<contour>
			<point x="950" y="777" type="line"/>
			<point x="50" y="777" type="line"/>
			<point x="50" y="642" type="line"/>
			<point x="950" y="642" type="line"/>
		</contour>
		<contour>
			<point x="724" y="336" type="line"/>
			<point x="283" y="336" type="line"/>
			<point x="283" y="225" type="line"/>
			<point x="724" y="225" type="line"/>
		</contour>
		<contour>
			<point x="740" y="174" type="line"/>
			<point x="265" y="174" type="line"/>
			<point x="265" y="59" type="line"/>
			<point x="740" y="59" type="line"/>
		</contour>
		<contour>
			<point x="568" y="281" type="line"/>
			<point x="430" y="281" type="line"/>
			<point x="430" y="-70" type="line"/>
			<point x="568" y="-70" type="line"/>
		</contour>
		<contour>
			<point x="807" y="584" type="line"/>
			<point x="93" y="584" type="line"/>
			<point x="93" y="-95" type="line"/>
			<point x="239" y="-95" type="line"/>
			<point x="239" y="451" type="line"/>
			<point x="807" y="451" type="line"/>
		</contour>
		<contour>
			<point x="918" y="41" type="curve" smooth="yes"/>
			<point x="918" y="584" type="line"/>
			<point x="768" y="584" type="line"/>
			<point x="768" y="42" type="line" smooth="yes"/>
			<point x="768" y="27"/>
			<point x="762" y="22"/>
			<point x="744" y="22" type="curve" smooth="yes"/>
			<point x="729" y="21"/>
			<point x="666" y="21"/>
			<point x="625" y="24" type="curve"/>
			<point x="643" y="-8"/>
			<point x="665" y="-61"/>
			<point x="672" y="-97" type="curve"/>
			<point x="752" y="-97"/>
			<point x="812" y="-96"/>
			<point x="857" y="-76" type="curve" smooth="yes"/>
			<point x="902" y="-56"/>
			<point x="918" y="-25"/>
		</contour>
		<contour>
			<point x="427" y="445" type="curve"/>
			<point x="312" y="419" type="line"/>
			<point x="328" y="384"/>
			<point x="342" y="343"/>
			<point x="348" y="314" type="curve"/>
			<point x="466" y="345" type="line"/>
			<point x="459" y="373"/>
			<point x="444" y="412"/>
		</contour>
		<contour>
			<point x="695" y="417" type="curve"/>
			<point x="568" y="448" type="line"/>
			<point x="560" y="411"/>
			<point x="547" y="371"/>
			<point x="534" y="344" type="curve"/>
			<point x="638" y="315" type="line"/>
			<point x="655" y="340"/>
			<point x="677" y="379"/>
		</contour>
		<contour>
			<point x="577" y="855" type="line"/>
			<point x="422" y="855" type="line"/>
			<point x="422" y="504" type="line"/>
			<point x="577" y="504" type="line"/>
		</contour>
	</outline>
</glyph>
<glyph name="uni5427" format="2">
	<advance width="1000" height="1000"/>
	<unicode hex="5427"/>
	<note>
		cid11991
	</note>
	<outline>
		<contour>
			<point x="376" y="767" type="line"/>
			<point x="141" y="767" type="line"/>
			<point x="141" y="633" type="line"/>
			<point x="242" y="633" type="line"/>
			<point x="242" y="325" type="line"/>
			<point x="141" y="325" type="line"/>
			<point x="141" y="191" type="line"/>
			<point x="376" y="191" type="line"/>
		</contour>
		<contour>
			<point x="192" y="767" type="line"/>
			<point x="59" y="767" type="line"/>
			<point x="59" y="105" type="line"/>
			<point x="192" y="105" type="line"/>
		</contour>
		<contour>
			<point x="859" y="464" type="line"/>
			<point x="510" y="464" type="line"/>
			<point x="510" y="327" type="line"/>
			<point x="859" y="327" type="line"/>
		</contour>
		<contour>
			<point x="933" y="811" type="line"/>
			<point x="507" y="811" type="line"/>
			<point x="507" y="674" type="line"/>
			<point x="793" y="674" type="line"/>
			<point x="793" y="290" type="line"/>
			<point x="933" y="290" type="line"/>
		</contour>
		<contour>
			<point x="561" y="128" type="curve" smooth="yes"/>
			<point x="561" y="811" type="line"/>
			<point x="421" y="811" type="line"/>
			<point x="421" y="128" type="line" smooth="yes"/>
			<point x="421" y="-34"/>
			<point x="464" y="-75"/>
			<point x="603" y="-75" type="curve" smooth="yes"/>
			<point x="633" y="-75"/>
			<point x="763" y="-75"/>
			<point x="797" y="-75" type="curve" smooth="yes"/>
			<point x="923" y="-75"/>
			<point x="963" y="-11"/>
			<point x="979" y="163" type="curve"/>
			<point x="941" y="169"/>
			<point x="881" y="196"/>
			<point x="848" y="219" type="curve"/>
			<point x="839" y="88"/>
			<point x="831" y="63"/>
			<point x="782" y="63" type="curve" smooth="yes"/>
			<point x="759" y="63"/>
			<point x="643" y="63"/>
			<point x="619" y="63" type="curve" smooth="yes"/>
			<point x="567" y="63"/>
			<point x="561" y="70"/>
		</contour>
		<contour>
			<point x="737" y="761" type="line"/>
			<point x="614" y="761" type="line"/>
			<point x="614" y="395" type="line"/>
			<point x="737" y="395" type="line"/>
		</contour>
	</outline>
</glyph>
<glyph name="uni5514" format="2">
	<advance width="1000" height="1000"/>
	<unicode hex="5514"/>
	<note>
		cid12343
	</note>
	<outline>
		<contour>
			<point x="362" y="768" type="line"/>
			<point x="135" y="768" type="line"/>
			<point x="135" y="637" type="line"/>
			<point x="235" y="637" type="line"/>
			<point x="235" y="307" type="line"/>
			<point x="135" y="307" type="line"/>
			<point x="135" y="175" type="line"/>
			<point x="362" y="175" type="line"/>
		</contour>
		<contour>
			<point x="184" y="768" type="line"/>
			<point x="59" y="768" type="line"/>
			<point x="59" y="88" type="line"/>
			<point x="184" y="88" type="line"/>
		</contour>
		<contour>
			<point x="951" y="812" type="line"/>
			<point x="392" y="812" type="line"/>
			<point x="392" y="690" type="line"/>
			<point x="951" y="690" type="line"/>
		</contour>
		<contour>
			<point x="976" y="436" type="line"/>
			<point x="378" y="436" type="line"/>
			<point x="378" y="310" type="line"/>
			<point x="976" y="310" type="line"/>
		</contour>
		<contour>
			<point x="922" y="271" type="line"/>
			<point x="418" y="271" type="line"/>
			<point x="418" y="-95" type="line"/>
			<point x="554" y="-95" type="line"/>
			<point x="554" y="150" type="line"/>
			<point x="779" y="150" type="line"/>
			<point x="779" y="-92" type="line"/>
			<point x="922" y="-92" type="line"/>
		</contour>
		<contour>
			<point x="853" y="63" type="line"/>
			<point x="468" y="63" type="line"/>
			<point x="468" y="-61" type="line"/>
			<point x="853" y="-61" type="line"/>
		</contour>
		<contour>
			<point x="885" y="636" type="line"/>
			<point x="414" y="636" type="line"/>
			<point x="414" y="514" type="line"/>
			<point x="748" y="514" type="line"/>
			<point x="748" y="375" type="line"/>
			<point x="885" y="375" type="line"/>
		</contour>
		<contour>
			<point x="708" y="764" type="curve"/>
			<point x="556" y="764" type="line"/>
			<point x="539" y="639"/>
			<point x="510" y="486"/>
			<point x="483" y="384" type="curve"/>
			<point x="635" y="384" type="line"/>
			<point x="658" y="481"/>
			<point x="687" y="634"/>
		</contour>
	</outline>
</glyph>
<glyph name="uni553E" format="2">
	<advance width="1000" height="1000"/>
	<unicode hex="553E"/>
	<note>
		cid12408
	</note>
	<outline>
		<contour>
			<point x="945" y="748" type="curve"/>
			<point x="850" y="855" type="line"/>
			<point x="748" y="824"/>
			<point x="555" y="798"/>
			<point x="381" y="791" type="curve"/>
			<point x="396" y="761"/>
			<point x="412" y="710"/>
			<point x="416" y="679" type="curve"/>
			<point x="597" y="682"/>
			<point x="816" y="710"/>
		</contour>
		<contour>
			<point x="952" y="632" type="line"/>
			<point x="382" y="632" type="line"/>
			<point x="382" y="515" type="line"/>
			<point x="952" y="515" type="line"/>
		</contour>
		<contour>
			<point x="976" y="54" type="line"/>
			<point x="341" y="54" type="line"/>
			<point x="341" y="-70" type="line"/>
			<point x="976" y="-70" type="line"/>
		</contour>
		<contour>
			<point x="952" y="245" type="line"/>
			<point x="382" y="245" type="line"/>
			<point x="382" y="128" type="line"/>
			<point x="952" y="128" type="line"/>
		</contour>
		<contour>
			<point x="975" y="441" type="line"/>
			<point x="354" y="441" type="line"/>
			<point x="354" y="320" type="line"/>
			<point x="975" y="320" type="line"/>
		</contour>
		<contour>
			<point x="735" y="743" type="line"/>
			<point x="597" y="743" type="line"/>
			<point x="597" y="-6" type="line"/>
			<point x="735" y="-6" type="line"/>
		</contour>
		<contour>
			<point x="554" y="575" type="line"/>
			<point x="428" y="575" type="line"/>
			<point x="428" y="185" type="line"/>
			<point x="554" y="185" type="line"/>
		</contour>
		<contour>
			<point x="906" y="575" type="line"/>
			<point x="778" y="575" type="line"/>
			<point x="778" y="185" type="line"/>
			<point x="906" y="185" type="line"/>
		</contour>
		<contour>
			<point x="340" y="753" type="line"/>
			<point x="113" y="753" type="line"/>
			<point x="113" y="624" type="line"/>
			<point x="218" y="624" type="line"/>
			<point x="218" y="307" type="line"/>
			<point x="113" y="307" type="line"/>
			<point x="113" y="179" type="line"/>
			<point x="340" y="179" type="line"/>
		</contour>
		<contour>
			<point x="173" y="753" type="line"/>
			<point x="55" y="753" type="line"/>
			<point x="55" y="95" type="line"/>
			<point x="173" y="95" type="line"/>
		</contour>
	</outline>
</glyph>
<glyph name="uni5F00" format="2">
	<advance width="1000" height="1000"/>
	<unicode hex="5F00"/>
	<note>
		cid17135
	</note>
	<outline>
		<contour>
			<point x="933" y="801" type="line"/>
			<point x="73" y="801" type="line"/>
			<point x="73" y="664" type="line"/>
			<point x="933" y="664" type="line"/>
		</contour>
		<contour>
			<point x="961" y="442" type="line"/>
			<point x="42" y="442" type="line"/>
			<point x="42" y="303" type="line"/>
			<point x="961" y="303" type="line"/>
		</contour>
		<contour>
			<point x="750" y="719" type="line"/>
			<point x="597" y="719" type="line"/>
			<point x="597" y="-96" type="line"/>
			<point x="750" y="-96" type="line"/>
		</contour>
		<contour>
			<point x="401" y="463" type="curve" smooth="yes"/>
			<point x="401" y="718" type="line"/>
			<point x="251" y="718" type="line"/>
			<point x="251" y="464" type="line" smooth="yes"/>
			<point x="251" y="308"/>
			<point x="229" y="130"/>
			<point x="26" y="9" type="curve"/>
			<point x="63" y="-15"/>
			<point x="119" y="-67"/>
			<point x="145" y="-100" type="curve"/>
			<point x="375" y="45"/>
			<point x="401" y="271"/>
		</contour>
	</outline>
</glyph>
<glyph name="uni5FC5" format="2">
	<advance width="1000" height="1000"/>
	<unicode hex="5FC5"/>
	<note>
		cid17490
	</note>
	<outline>
		<contour>
			<point x="451" y="96" type="curve" smooth="yes"/>
			<point x="451" y="575" type="line"/>
			<point x="299" y="575" type="line"/>
			<point x="299" y="96" type="line" smooth="yes"/>
			<point x="299" y="-46"/>
			<point x="337" y="-92"/>
			<point x="478" y="-92" type="curve" smooth="yes"/>
			<point x="505" y="-92"/>
			<point x="593" y="-92"/>
			<point x="622" y="-92" type="curve" smooth="yes"/>
			<point x="749" y="-92"/>
			<point x="787" y="-31"/>
			<point x="802" y="156" type="curve"/>
			<point x="762" y="166"/>
			<point x="700" y="192"/>
			<point x="667" y="218" type="curve"/>
			<point x="660" y="70"/>
			<point x="652" y="40"/>
			<point x="609" y="40" type="curve" smooth="yes"/>
			<point x="588" y="40"/>
			<point x="518" y="40"/>
			<point x="499" y="40" type="curve" smooth="yes"/>
			<point x="456" y="40"/>
			<point x="451" y="46"/>
		</contour>
		<contour>
			<point x="382" y="854" type="curve"/>
			<point x="281" y="746" type="line"/>
			<point x="385" y="700"/>
			<point x="484" y="639"/>
			<point x="538" y="588" type="curve"/>
			<point x="642" y="711" type="line"/>
			<point x="583" y="759"/>
			<point x="483" y="814"/>
		</contour>
		<contour>
			<point x="256" y="487" type="curve"/>
			<point x="116" y="522" type="line"/>
			<point x="101" y="413"/>
			<point x="63" y="298"/>
			<point x="17" y="224" type="curve"/>
			<point x="158" y="165" type="line"/>
			<point x="203" y="241"/>
			<point x="241" y="365"/>
		</contour>
		<contour>
			<point x="837" y="519" type="curve"/>
			<point x="704" y="451" type="line"/>
			<point x="766" y="351"/>
			<point x="820" y="232"/>
			<point x="844" y="142" type="curve"/>
			<point x="986" y="217" type="line"/>
			<point x="960" y="304"/>
			<point x="902" y="420"/>
		</contour>
		<contour>
			<point x="897" y="739" type="curve"/>
			<point x="750" y="797" type="line"/>
			<point x="622" y="524"/>
			<point x="356" y="217"/>
			<point x="20" y="63" type="curve"/>
			<point x="50" y="34"/>
			<point x="93" y="-19"/>
			<point x="115" y="-53" type="curve"/>
			<point x="474" y="126"/>
			<point x="737" y="433"/>
		</contour>
	</outline>
</glyph>
<glyph name="uni5FEB" format="2">
	<advance width="1000" height="1000"/>
	<unicode hex="5FEB"/>
	<note>
		cid17549
	</note>
	<outline>
		<contour>
			<point x="911" y="708" type="line"/>
			<point x="412" y="708" type="line"/>
			<point x="412" y="574" type="line"/>
			<point x="769" y="574" type="line"/>
			<point x="769" y="341" type="line"/>
			<point x="911" y="341" type="line"/>
		</contour>
		<contour>
			<point x="975" y="416" type="line"/>
			<point x="362" y="416" type="line"/>
			<point x="362" y="278" type="line"/>
			<point x="975" y="278" type="line"/>
		</contour>
		<contour>
			<point x="712" y="387" type="curve"/>
			<point x="581" y="363" type="line"/>
			<point x="633" y="147"/>
			<point x="712" y="-14"/>
			<point x="886" y="-98" type="curve"/>
			<point x="908" y="-55"/>
			<point x="955" y="8"/>
			<point x="989" y="39" type="curve"/>
			<point x="835" y="98"/>
			<point x="753" y="227"/>
		</contour>
		<contour>
			<point x="702" y="488" type="curve" smooth="yes"/>
			<point x="702" y="855" type="line"/>
			<point x="558" y="855" type="line"/>
			<point x="558" y="489" type="line" smooth="yes"/>
			<point x="558" y="324"/>
			<point x="543" y="123"/>
			<point x="322" y="12" type="curve"/>
			<point x="354" y="-13"/>
			<point x="398" y="-61"/>
			<point x="424" y="-98" type="curve"/>
			<point x="654" y="44"/>
			<point x="702" y="281"/>
		</contour>
		<contour>
			<point x="302" y="855" type="line"/>
			<point x="160" y="855" type="line"/>
			<point x="160" y="-95" type="line"/>
			<point x="302" y="-95" type="line"/>
		</contour>
		<contour>
			<point x="160" y="641" type="curve"/>
			<point x="59" y="654" type="line"/>
			<point x="58" y="563"/>
			<point x="45" y="452"/>
			<point x="14" y="390" type="curve"/>
			<point x="114" y="346" type="line"/>
			<point x="149" y="423"/>
			<point x="162" y="541"/>
		</contour>
		<contour>
			<point x="355" y="683" type="curve"/>
			<point x="269" y="646" type="line"/>
			<point x="301" y="581"/>
			<point x="331" y="496"/>
			<point x="339" y="443" type="curve"/>
			<point x="431" y="485" type="line"/>
			<point x="422" y="538"/>
			<point x="389" y="620"/>
		</contour>
	</outline>
</glyph>
<glyph name="uni601D" format="2">
	<advance width="1000" height="1000"/>
	<unicode hex="601D"/>
	<note>
		cid17625
	</note>
	<outline>
		<contour>
			<point x="434" y="84" type="curve" smooth="yes"/>
			<point x="434" y="228" type="line"/>
			<point x="290" y="228" type="line"/>
			<point x="290" y="82" type="line" smooth="yes"/>
			<point x="290" y="-38"/>
			<point x="322" y="-79"/>
			<point x="459" y="-79" type="curve" smooth="yes"/>
			<point x="487" y="-79"/>
			<point x="541" y="-79"/>
			<point x="569" y="-79" type="curve" smooth="yes"/>
			<point x="674" y="-79"/>
			<point x="712" y="-43"/>
			<point x="728" y="101" type="curve"/>
			<point x="689" y="109"/>
			<point x="628" y="131"/>
			<point x="600" y="152" type="curve"/>
			<point x="595" y="62"/>
			<point x="589" y="49"/>
			<point x="556" y="49" type="curve" smooth="yes"/>
			<point x="535" y="49"/>
			<point x="496" y="49"/>
			<point x="479" y="49" type="curve" smooth="yes"/>
			<point x="440" y="49"/>
			<point x="434" y="52"/>
		</contour>
		<contour>
			<point x="451" y="361" type="curve"/>
			<point x="356" y="270" type="line"/>
			<point x="428" y="229"/>
			<point x="494" y="178"/>
			<point x="529" y="139" type="curve"/>
			<point x="633" y="237" type="line"/>
			<point x="595" y="278"/>
			<point x="525" y="326"/>
		</contour>
		<contour>
			<point x="802" y="268" type="curve"/>
			<point x="674" y="195" type="line"/>
			<point x="742" y="122"/>
			<point x="805" y="31"/>
			<point x="837" y="-40" type="curve"/>
			<point x="976" y="41" type="line"/>
			<point x="941" y="112"/>
			<point x="873" y="200"/>
		</contour>
		<contour>
			<point x="281" y="203" type="curve"/>
			<point x="150" y="246" type="line"/>
			<point x="128" y="156"/>
			<point x="82" y="78"/>
			<point x="20" y="30" type="curve"/>
			<point x="142" y="-52" type="line"/>
			<point x="206" y="3"/>
			<point x="256" y="95"/>
		</contour>
		<contour>
			<point x="277" y="449" type="line"/>
			<point x="277" y="512" type="line"/>
			<point x="719" y="512" type="line"/>
			<point x="719" y="449" type="line"/>
		</contour>
		<contour>
			<point x="277" y="628" type="line"/>
			<point x="277" y="689" type="line"/>
			<point x="719" y="689" type="line"/>
			<point x="719" y="628" type="line"/>
		</contour>
		<contour>
			<point x="863" y="814" type="line"/>
			<point x="140" y="814" type="line"/>
			<point x="140" y="324" type="line"/>
			<point x="863" y="324" type="line"/>
		</contour>
		<contour>
			<point x="566" y="758" type="line"/>
			<point x="425" y="758" type="line"/>
			<point x="425" y="375" type="line"/>
			<point x="566" y="375" type="line"/>
		</contour>
	</outline>
</glyph>
<glyph name="uni609F" format="2">
	<advance width="1000" height="1000"/>
	<unicode hex="609F"/>
	<note>
		cid17834
	</note>
	<outline>
		<contour>
			<point x="291" y="855" type="line"/>
			<point x="151" y="855" type="line"/>
			<point x="151" y="-95" type="line"/>
			<point x="291" y="-95" type="line"/>
		</contour>
		<contour>
			<point x="153" y="642" type="curve"/>
			<point x="59" y="654" type="line"/>
			<point x="58" y="563"/>
			<point x="44" y="452"/>
			<point x="14" y="389" type="curve"/>
			<point x="107" y="348" type="line"/>
			<point x="141" y="425"/>
			<point x="155" y="543"/>
		</contour>
		<contour>
			<point x="338" y="682" type="curve"/>
			<point x="255" y="646" type="line"/>
			<point x="287" y="581"/>
			<point x="317" y="496"/>
			<point x="325" y="443" type="curve"/>
			<point x="414" y="484" type="line"/>
			<point x="405" y="537"/>
			<point x="372" y="619"/>
		</contour>
		<contour>
			<point x="938" y="820" type="line"/>
			<point x="389" y="820" type="line"/>
			<point x="389" y="696" type="line"/>
			<point x="938" y="696" type="line"/>
		</contour>
		<contour>
			<point x="975" y="435" type="line"/>
			<point x="350" y="435" type="line"/>
			<point x="350" y="309" type="line"/>
			<point x="975" y="309" type="line"/>
		</contour>
		<contour>
			<point x="898" y="636" type="line"/>
			<point x="413" y="636" type="line"/>
			<point x="413" y="514" type="line"/>
			<point x="755" y="514" type="line"/>
			<point x="755" y="369" type="line"/>
			<point x="898" y="369" type="line"/>
		</contour>
		<contour>
			<point x="915" y="264" type="line"/>
			<point x="411" y="264" type="line"/>
			<point x="411" y="-95" type="line"/>
			<point x="553" y="-95" type="line"/>
			<point x="553" y="140" type="line"/>
			<point x="766" y="140" type="line"/>
			<point x="766" y="-92" type="line"/>
			<point x="915" y="-92" type="line"/>
		</contour>
		<contour>
			<point x="838" y="59" type="line"/>
			<point x="474" y="59" type="line"/>
			<point x="474" y="-67" type="line"/>
			<point x="838" y="-67" type="line"/>
		</contour>
		<contour>
			<point x="705" y="762" type="curve"/>
			<point x="560" y="775" type="line"/>
			<point x="542" y="644"/>
			<point x="512" y="478"/>
			<point x="485" y="373" type="curve"/>
			<point x="634" y="373" type="line"/>
			<point x="656" y="471"/>
			<point x="684" y="631"/>
		</contour>
	</outline>
</glyph>
<glyph name="uni60C5" format="2">
	<advance width="1000" height="1000"/>
	<unicode hex="60C5"/>
	<note>
		cid62292
	</note>
	<outline>
		<contour>
			<point x="291" y="855" type="line"/>
			<point x="151" y="855" type="line"/>
			<point x="151" y="-95" type="line"/>
			<point x="291" y="-95" type="line"/>
		</contour>
		<contour>
			<point x="153" y="642" type="curve"/>
			<point x="59" y="654" type="line"/>
			<point x="58" y="563"/>
			<point x="44" y="452"/>
			<point x="14" y="389" type="curve"/>
			<point x="107" y="348" type="line"/>
			<point x="141" y="425"/>
			<point x="155" y="543"/>
		</contour>
		<contour>
			<point x="338" y="707" type="curve"/>
			<point x="255" y="672" type="line"/>
			<point x="284" y="614"/>
			<point x="311" y="538"/>
			<point x="318" y="490" type="curve"/>
			<point x="407" y="530" type="line"/>
			<point x="399" y="578"/>
			<point x="369" y="651"/>
		</contour>
		<contour>
			<point x="943" y="786" type="line"/>
			<point x="389" y="786" type="line"/>
			<point x="389" y="683" type="line"/>
			<point x="943" y="683" type="line"/>
		</contour>
		<contour>
			<point x="976" y="531" type="line"/>
			<point x="354" y="531" type="line"/>
			<point x="354" y="420" type="line"/>
			<point x="976" y="420" type="line"/>
		</contour>
		<contour>
			<point x="912" y="657" type="line"/>
			<point x="426" y="657" type="line"/>
			<point x="426" y="559" type="line"/>
			<point x="912" y="559" type="line"/>
		</contour>
		<contour>
			<point x="743" y="855" type="line"/>
			<point x="587" y="855" type="line"/>
			<point x="587" y="481" type="line"/>
			<point x="743" y="481" type="line"/>
		</contour>
		<contour>
			<point x="832" y="265" type="line"/>
			<point x="494" y="265" type="line"/>
			<point x="494" y="172" type="line"/>
			<point x="832" y="172" type="line"/>
		</contour>
		<contour>
			<point x="832" y="145" type="line"/>
			<point x="494" y="145" type="line"/>
			<point x="494" y="52" type="line"/>
			<point x="832" y="52" type="line"/>
		</contour>
		<contour>
			<point x="834" y="391" type="line"/>
			<point x="425" y="391" type="line"/>
			<point x="425" y="-95" type="line"/>
			<point x="566" y="-95" type="line"/>
			<point x="566" y="290" type="line"/>
			<point x="834" y="290" type="line"/>
		</contour>
		<contour>
			<point x="908" y="35" type="curve" smooth="yes"/>
			<point x="908" y="391" type="line"/>
			<point x="764" y="391" type="line"/>
			<point x="764" y="37" type="line" smooth="yes"/>
			<point x="764" y="25"/>
			<point x="760" y="22"/>
			<point x="747" y="21" type="curve" smooth="yes"/>
			<point x="735" y="21"/>
			<point x="692" y="21"/>
			<point x="662" y="23" type="curve"/>
			<point x="678" y="-9"/>
			<point x="695" y="-59"/>
			<point x="701" y="-95" type="curve"/>
			<point x="766" y="-95"/>
			<point x="817" y="-94"/>
			<point x="856" y="-75" type="curve" smooth="yes"/>
			<point x="896" y="-56"/>
			<point x="908" y="-25"/>
		</contour>
	</outline>
</glyph>
<glyph name="uni60F3" format="2">
	<advance width="1000" height="1000"/>
	<unicode hex="60F3"/>
	<note>
		cid17974
	</note>
	<outline>
		<contour>
			<point x="468" y="716" type="line"/>
			<point x="44" y="716" type="line"/>
			<point x="44" y="594" type="line"/>
			<point x="468" y="594" type="line"/>
		</contour>
		<contour>
			<point x="337" y="854" type="line"/>
			<point x="199" y="854" type="line"/>
			<point x="199" y="242" type="line"/>
			<point x="337" y="242" type="line"/>
		</contour>
		<contour>
			<point x="293" y="603" type="curve"/>
			<point x="195" y="634" type="line"/>
			<point x="159" y="542"/>
			<point x="91" y="444"/>
			<point x="18" y="390" type="curve"/>
			<point x="47" y="367"/>
			<point x="90" y="320"/>
			<point x="111" y="289" type="curve"/>
			<point x="187" y="360"/>
			<point x="254" y="483"/>
		</contour>
		<contour>
			<point x="330" y="572" type="curve"/>
			<point x="256" y="501" type="line"/>
			<point x="299" y="466"/>
			<point x="376" y="393"/>
			<point x="416" y="348" type="curve"/>
			<point x="492" y="464" type="line"/>
			<point x="466" y="483"/>
			<point x="364" y="554"/>
		</contour>
		<contour>
			<point x="637" y="511" type="line"/>
			<point x="637" y="550" type="line"/>
			<point x="785" y="550" type="line"/>
			<point x="785" y="511" type="line"/>
		</contour>
		<contour>
			<point x="637" y="367" type="line"/>
			<point x="637" y="407" type="line"/>
			<point x="785" y="407" type="line"/>
			<point x="785" y="367" type="line"/>
		</contour>
		<contour>
			<point x="637" y="655" type="line"/>
			<point x="637" y="693" type="line"/>
			<point x="785" y="693" type="line"/>
			<point x="785" y="655" type="line"/>
		</contour>
		<contour>
			<point x="924" y="806" type="line"/>
			<point x="505" y="806" type="line"/>
			<point x="505" y="255" type="line"/>
			<point x="924" y="255" type="line"/>
		</contour>
		<contour>
			<point x="428" y="69" type="curve" smooth="yes"/>
			<point x="428" y="193" type="line"/>
			<point x="284" y="193" type="line"/>
			<point x="284" y="67" type="line" smooth="yes"/>
			<point x="284" y="-49"/>
			<point x="317" y="-87"/>
			<point x="460" y="-87" type="curve" smooth="yes"/>
			<point x="489" y="-87"/>
			<point x="575" y="-87"/>
			<point x="605" y="-87" type="curve" smooth="yes"/>
			<point x="709" y="-87"/>
			<point x="748" y="-57"/>
			<point x="764" y="62" type="curve"/>
			<point x="726" y="70"/>
			<point x="666" y="91"/>
			<point x="638" y="111" type="curve"/>
			<point x="633" y="46"/>
			<point x="626" y="36"/>
			<point x="592" y="36" type="curve" smooth="yes"/>
			<point x="567" y="36"/>
			<point x="498" y="36"/>
			<point x="479" y="36" type="curve" smooth="yes"/>
			<point x="435" y="36"/>
			<point x="428" y="39"/>
		</contour>
		<contour>
			<point x="466" y="297" type="curve"/>
			<point x="371" y="222" type="line"/>
			<point x="427" y="182"/>
			<point x="493" y="123"/>
			<point x="521" y="81" type="curve"/>
			<point x="623" y="163" type="line"/>
			<point x="591" y="206"/>
			<point x="522" y="261"/>
		</contour>
		<contour>
			<point x="810" y="212" type="curve"/>
			<point x="694" y="146" type="line"/>
			<point x="759" y="83"/>
			<point x="826" y="-5"/>
			<point x="850" y="-66" type="curve"/>
			<point x="976" y="7" type="line"/>
			<point x="947" y="71"/>
			<point x="876" y="153"/>
		</contour>
		<contour>
			<point x="274" y="154" type="curve"/>
			<point x="148" y="199" type="line"/>
			<point x="126" y="126"/>
			<point x="82" y="58"/>
			<point x="22" y="14" type="curve"/>
			<point x="139" y="-66" type="line"/>
			<point x="209" y="-13"/>
			<point x="248" y="70"/>
		</contour>
	</outline>
</glyph>
<glyph name="uni6211" format="2">
	<advance width="1000" height="1000"/>
	<unicode hex="6211"/>
	<note>
		cid18520
	</note>
	<outline>
		<contour>
			<point x="814" y="827" type="curve"/>
			<point x="705" y="753" type="line"/>
			<point x="757" y="705"/>
			<point x="817" y="636"/>
			<point x="840" y="589" type="curve"/>
			<point x="957" y="670" type="line"/>
			<point x="929" y="718"/>
			<point x="866" y="782"/>
		</contour>
		<contour>
			<point x="956" y="577" type="line"/>
			<point x="46" y="577" type="line"/>
			<point x="46" y="440" type="line"/>
			<point x="956" y="440" type="line"/>
		</contour>
		<contour>
			<point x="25" y="301" type="curve"/>
			<point x="59" y="154" type="line"/>
			<point x="190" y="178"/>
			<point x="362" y="210"/>
			<point x="523" y="242" type="curve"/>
			<point x="513" y="374" type="line"/>
			<point x="338" y="346"/>
			<point x="147" y="316"/>
		</contour>
		<contour>
			<point x="369" y="70" type="curve" smooth="yes"/>
			<point x="369" y="720" type="line"/>
			<point x="222" y="720" type="line"/>
			<point x="222" y="72" type="line" smooth="yes"/>
			<point x="222" y="56"/>
			<point x="216" y="51"/>
			<point x="198" y="51" type="curve" smooth="yes"/>
			<point x="180" y="50"/>
			<point x="122" y="50"/>
			<point x="70" y="53" type="curve"/>
			<point x="91" y="13"/>
			<point x="115" y="-53"/>
			<point x="121" y="-94" type="curve"/>
			<point x="202" y="-94"/>
			<point x="265" y="-89"/>
			<point x="310" y="-66" type="curve" smooth="yes"/>
			<point x="355" y="-43"/>
			<point x="369" y="-4"/>
		</contour>
		<contour>
			<point x="533" y="728" type="curve"/>
			<point x="435" y="852" type="line"/>
			<point x="329" y="818"/>
			<point x="176" y="788"/>
			<point x="35" y="771" type="curve"/>
			<point x="51" y="739"/>
			<point x="70" y="684"/>
			<point x="76" y="649" type="curve"/>
			<point x="223" y="663"/>
			<point x="394" y="688"/>
		</contour>
		<contour>
			<point x="685" y="847" type="curve"/>
			<point x="533" y="847" type="line"/>
			<point x="535" y="413"/>
			<point x="607" y="-99"/>
			<point x="820" y="-99" type="curve" smooth="yes"/>
			<point x="920" y="-99"/>
			<point x="964" y="-58"/>
			<point x="986" y="125" type="curve"/>
			<point x="948" y="141"/>
			<point x="899" y="175"/>
			<point x="868" y="209" type="curve"/>
			<point x="863" y="96"/>
			<point x="852" y="49"/>
			<point x="835" y="49" type="curve" smooth="yes"/>
			<point x="761" y="49"/>
			<point x="675" y="476"/>
		</contour>
		<contour>
			<point x="933" y="359" type="curve"/>
			<point x="805" y="414" type="line"/>
			<point x="716" y="251"/>
			<point x="554" y="126"/>
			<point x="387" y="52" type="curve"/>
			<point x="423" y="19"/>
			<point x="463" y="-30"/>
			<point x="484" y="-66" type="curve"/>
			<point x="664" y="30"/>
			<point x="826" y="171"/>
		</contour>
	</outline>
</glyph>
<glyph name="uni628A" format="2">
	<advance width="1000" height="1000"/>
	<unicode hex="628A"/>
	<note>
		cid18727
	</note>
	<outline>
		<contour>
			<point x="16" y="356" type="curve"/>
			<point x="49" y="217" type="line"/>
			<point x="152" y="242"/>
			<point x="282" y="273"/>
			<point x="402" y="305" type="curve"/>
			<point x="385" y="438" type="line"/>
			<point x="253" y="406"/>
			<point x="112" y="374"/>
		</contour>
		<contour>
			<point x="385" y="674" type="line"/>
			<point x="33" y="674" type="line"/>
			<point x="33" y="540" type="line"/>
			<point x="385" y="540" type="line"/>
		</contour>
		<contour>
			<point x="292" y="57" type="curve" smooth="yes"/>
			<point x="292" y="855" type="line"/>
			<point x="149" y="855" type="line"/>
			<point x="149" y="57" type="line" smooth="yes"/>
			<point x="149" y="43"/>
			<point x="144" y="39"/>
			<point x="130" y="38" type="curve" smooth="yes"/>
			<point x="117" y="38"/>
			<point x="76" y="38"/>
			<point x="41" y="40" type="curve"/>
			<point x="58" y="3"/>
			<point x="76" y="-56"/>
			<point x="80" y="-93" type="curve"/>
			<point x="153" y="-93"/>
			<point x="205" y="-89"/>
			<point x="243" y="-67" type="curve" smooth="yes"/>
			<point x="281" y="-45"/>
			<point x="292" y="-10"/>
		</contour>
		<contour>
			<point x="858" y="474" type="line"/>
			<point x="505" y="474" type="line"/>
			<point x="505" y="337" type="line"/>
			<point x="858" y="337" type="line"/>
		</contour>
		<contour>
			<point x="933" y="811" type="line"/>
			<point x="502" y="811" type="line"/>
			<point x="502" y="674" type="line"/>
			<point x="791" y="674" type="line"/>
			<point x="791" y="290" type="line"/>
			<point x="933" y="290" type="line"/>
		</contour>
		<contour>
			<point x="557" y="128" type="curve" smooth="yes"/>
			<point x="557" y="811" type="line"/>
			<point x="417" y="811" type="line"/>
			<point x="417" y="129" type="line" smooth="yes"/>
			<point x="417" y="-33"/>
			<point x="461" y="-73"/>
			<point x="601" y="-73" type="curve" smooth="yes"/>
			<point x="632" y="-73"/>
			<point x="761" y="-73"/>
			<point x="795" y="-73" type="curve" smooth="yes"/>
			<point x="921" y="-73"/>
			<point x="961" y="-11"/>
			<point x="977" y="161" type="curve"/>
			<point x="940" y="168"/>
			<point x="883" y="193"/>
			<point x="850" y="215" type="curve"/>
			<point x="841" y="87"/>
			<point x="832" y="61"/>
			<point x="781" y="61" type="curve" smooth="yes"/>
			<point x="758" y="61"/>
			<point x="642" y="61"/>
			<point x="617" y="61" type="curve" smooth="yes"/>
			<point x="563" y="61"/>
			<point x="557" y="68"/>
		</contour>
		<contour>
			<point x="735" y="761" type="line"/>
			<point x="610" y="761" type="line"/>
			<point x="610" y="405" type="line"/>
			<point x="735" y="405" type="line"/>
		</contour>
	</outline>
</glyph>
<glyph name="uni64AD" format="2">
	<advance width="1000" height="1000"/>
	<unicode hex="64AD"/>
	<note>
		cid19629
	</note>
	<outline>
		<contour>
			<point x="16" y="342" type="curve"/>
			<point x="40" y="202" type="line"/>
			<point x="132" y="232"/>
			<point x="244" y="268"/>
			<point x="346" y="304" type="curve"/>
			<point x="323" y="432" type="line"/>
			<point x="213" y="397"/>
			<point x="95" y="361"/>
		</contour>
		<contour>
			<point x="341" y="672" type="line"/>
			<point x="34" y="672" type="line"/>
			<point x="34" y="539" type="line"/>
			<point x="341" y="539" type="line"/>
		</contour>
		<contour>
			<point x="261" y="54" type="curve" smooth="yes"/>
			<point x="261" y="854" type="line"/>
			<point x="128" y="854" type="line"/>
			<point x="128" y="54" type="line" smooth="yes"/>
			<point x="128" y="41"/>
			<point x="124" y="38"/>
			<point x="112" y="38" type="curve" smooth="yes"/>
			<point x="100" y="37"/>
			<point x="67" y="37"/>
			<point x="35" y="39" type="curve"/>
			<point x="52" y="0"/>
			<point x="68" y="-60"/>
			<point x="71" y="-96" type="curve"/>
			<point x="137" y="-96"/>
			<point x="183" y="-91"/>
			<point x="217" y="-68" type="curve" smooth="yes"/>
			<point x="251" y="-46"/>
			<point x="261" y="-9"/>
		</contour>
		<contour>
			<point x="935" y="751" type="curve"/>
			<point x="862" y="856" type="line"/>
			<point x="731" y="831"/>
			<point x="531" y="813"/>
			<point x="354" y="806" type="curve"/>
			<point x="366" y="778"/>
			<point x="381" y="732"/>
			<point x="384" y="702" type="curve"/>
			<point x="564" y="706"/>
			<point x="776" y="721"/>
		</contour>
		<contour>
			<point x="964" y="599" type="line"/>
			<point x="347" y="599" type="line"/>
			<point x="347" y="483" type="line"/>
			<point x="964" y="483" type="line"/>
		</contour>
		<contour>
			<point x="709" y="775" type="line"/>
			<point x="579" y="775" type="line"/>
			<point x="579" y="325" type="line"/>
			<point x="709" y="325" type="line"/>
		</contour>
		<contour>
			<point x="700" y="261" type="line"/>
			<point x="581" y="261" type="line"/>
			<point x="581" y="-27" type="line"/>
			<point x="700" y="-27" type="line"/>
		</contour>
		<contour>
			<point x="518" y="722" type="curve"/>
			<point x="405" y="689" type="line"/>
			<point x="420" y="654"/>
			<point x="435" y="606"/>
			<point x="441" y="576" type="curve"/>
			<point x="560" y="615" type="line"/>
			<point x="553" y="643"/>
			<point x="534" y="689"/>
		</contour>
		<contour>
			<point x="910" y="699" type="curve"/>
			<point x="784" y="739" type="line"/>
			<point x="771" y="702"/>
			<point x="747" y="650"/>
			<point x="728" y="616" type="curve"/>
			<point x="828" y="581" type="line"/>
			<point x="851" y="610"/>
			<point x="880" y="654"/>
		</contour>
		<contour>
			<point x="620" y="506" type="curve"/>
			<point x="508" y="542" type="line"/>
			<point x="466" y="465"/>
			<point x="382" y="393"/>
			<point x="288" y="356" type="curve"/>
			<point x="317" y="331"/>
			<point x="357" y="283"/>
			<point x="376" y="252" type="curve"/>
			<point x="481" y="303"/>
			<point x="568" y="398"/>
		</contour>
		<contour>
			<point x="776" y="542" type="curve"/>
			<point x="668" y="502" type="line"/>
			<point x="722" y="405"/>
			<point x="809" y="309"/>
			<point x="901" y="257" type="curve"/>
			<point x="921" y="289"/>
			<point x="962" y="336"/>
			<point x="991" y="360" type="curve"/>
			<point x="906" y="399"/>
			<point x="820" y="471"/>
		</contour>
		<contour>
			<point x="905" y="316" type="line"/>
			<point x="391" y="316" type="line"/>
			<point x="391" y="-94" type="line"/>
			<point x="518" y="-94" type="line"/>
			<point x="518" y="211" type="line"/>
			<point x="772" y="211" type="line"/>
			<point x="772" y="-90" type="line"/>
			<point x="905" y="-90" type="line"/>
		</contour>
		<contour>
			<point x="809" y="173" type="line"/>
			<point x="475" y="173" type="line"/>
			<point x="475" y="75" type="line"/>
			<point x="809" y="75" type="line"/>
		</contour>
		<contour>
			<point x="809" y="35" type="line"/>
			<point x="475" y="35" type="line"/>
			<point x="475" y="-65" type="line"/>
			<point x="809" y="-65" type="line"/>
		</contour>
	</outline>
</glyph>
<glyph name="uni6709" format="2">
	<advance width="1000" height="1000"/>
	<unicode hex="6709"/>
	<note>
		cid20695
	</note>
	<outline>
		<contour>
			<point x="951" y="739" type="line"/>
			<point x="50" y="739" type="line"/>
			<point x="50" y="603" type="line"/>
			<point x="951" y="603" type="line"/>
		</contour>
		<contour>
			<point x="749" y="377" type="line"/>
			<point x="334" y="377" type="line"/>
			<point x="334" y="257" type="line"/>
			<point x="749" y="257" type="line"/>
		</contour>
		<contour>
			<point x="751" y="545" type="line"/>
			<point x="248" y="545" type="line"/>
			<point x="248" y="-95" type="line"/>
			<point x="392" y="-95" type="line"/>
			<point x="392" y="419" type="line"/>
			<point x="751" y="419" type="line"/>
		</contour>
		<contour>
			<point x="826" y="55" type="curve" smooth="yes"/>
			<point x="826" y="545" type="line"/>
			<point x="684" y="545" type="line"/>
			<point x="684" y="58" type="line" smooth="yes"/>
			<point x="684" y="45"/>
			<point x="678" y="40"/>
			<point x="662" y="40" type="curve" smooth="yes"/>
			<point x="646" y="40"/>
			<point x="588" y="40"/>
			<point x="545" y="43" type="curve"/>
			<point x="564" y="5"/>
			<point x="583" y="-57"/>
			<point x="588" y="-97" type="curve"/>
			<point x="667" y="-97"/>
			<point x="725" y="-95"/>
			<point x="769" y="-73" type="curve" smooth="yes"/>
			<point x="814" y="-51"/>
			<point x="826" y="-12"/>
		</contour>
		<contour>
			<point x="504" y="816" type="curve"/>
			<point x="350" y="856" type="line"/>
			<point x="299" y="640"/>
			<point x="171" y="437"/>
			<point x="18" y="329" type="curve"/>
			<point x="50" y="300"/>
			<point x="96" y="250"/>
			<point x="122" y="214" type="curve"/>
			<point x="294" y="341"/>
			<point x="441" y="573"/>
		</contour>
		<contour>
			<point x="749" y="214" type="line"/>
			<point x="334" y="214" type="line"/>
			<point x="334" y="94" type="line"/>
			<point x="749" y="94" type="line"/>
		</contour>
	</outline>
</glyph>
<glyph name="uni6C5F" format="2">
	<advance width="1000" height="1000"/>
	<unicode hex="6C5F"/>
	<note>
		cid23073
	</note>
	<outline>
		<contour>
			<point x="172" y="852" type="curve"/>
			<point x="93" y="745" type="line"/>
			<point x="157" y="717"/>
			<point x="240" y="669"/>
			<point x="278" y="633" type="curve"/>
			<point x="363" y="751" type="line"/>
			<point x="321" y="787"/>
			<point x="235" y="829"/>
		</contour>
		<contour>
			<point x="96" y="583" type="curve"/>
			<point x="21" y="473" type="line"/>
			<point x="86" y="446"/>
			<point x="171" y="400"/>
			<point x="210" y="365" type="curve"/>
			<point x="291" y="486" type="line"/>
			<point x="247" y="520"/>
			<point x="160" y="561"/>
		</contour>
		<contour>
			<point x="67" y="14" type="curve"/>
			<point x="190" y="-84" type="line"/>
			<point x="251" y="16"/>
			<point x="311" y="124"/>
			<point x="364" y="229" type="curve"/>
			<point x="257" y="326" type="line"/>
			<point x="196" y="209"/>
			<point x="120" y="88"/>
		</contour>
		<contour>
			<point x="944" y="777" type="line"/>
			<point x="384" y="777" type="line"/>
			<point x="384" y="631" type="line"/>
			<point x="944" y="631" type="line"/>
		</contour>
		<contour>
			<point x="975" y="108" type="line"/>
			<point x="333" y="108" type="line"/>
			<point x="333" y="-38" type="line"/>
			<point x="975" y="-38" type="line"/>
		</contour>
		<contour>
			<point x="731" y="727" type="line"/>
			<point x="576" y="727" type="line"/>
			<point x="576" y="25" type="line"/>
			<point x="731" y="25" type="line"/>
		</contour>
	</outline>
</glyph>
<glyph name="uni6C68" format="2">
	<advance width="1000" height="1000"/>
	<unicode hex="6C68"/>
	<note>
		cid23084
	</note>
	<outline>
		<contour>
			<point x="852" y="110" type="line"/>
			<point x="463" y="110" type="line"/>
			<point x="463" y="-27" type="line"/>
			<point x="852" y="-27" type="line"/>
		</contour>
		<contour>
			<point x="849" y="456" type="line"/>
			<point x="474" y="456" type="line"/>
			<point x="474" y="321" type="line"/>
			<point x="849" y="321" type="line"/>
		</contour>
		<contour>
			<point x="939" y="798" type="line"/>
			<point x="383" y="798" type="line"/>
			<point x="383" y="-95" type="line"/>
			<point x="523" y="-95" type="line"/>
			<point x="523" y="661" type="line"/>
			<point x="792" y="661" type="line"/>
			<point x="792" y="-86" type="line"/>
			<point x="939" y="-86" type="line"/>
		</contour>
		<contour>
			<point x="172" y="852" type="curve"/>
			<point x="93" y="745" type="line"/>
			<point x="157" y="717"/>
			<point x="240" y="669"/>
			<point x="278" y="633" type="curve"/>
			<point x="363" y="751" type="line"/>
			<point x="321" y="787"/>
			<point x="235" y="829"/>
		</contour>
		<contour>
			<point x="96" y="583" type="curve"/>
			<point x="21" y="473" type="line"/>
			<point x="86" y="446"/>
			<point x="171" y="400"/>
			<point x="210" y="365" type="curve"/>
			<point x="291" y="486" type="line"/>
			<point x="247" y="520"/>
			<point x="160" y="561"/>
		</contour>
		<contour>
			<point x="67" y="14" type="curve"/>
			<point x="190" y="-84" type="line"/>
			<point x="251" y="16"/>
			<point x="311" y="124"/>
			<point x="364" y="229" type="curve"/>
			<point x="257" y="326" type="line"/>
			<point x="196" y="209"/>
			<point x="120" y="88"/>
		</contour>
	</outline>
</glyph>
<glyph name="uni706F" format="2">
	<advance width="1000" height="1000"/>
	<unicode hex="706F"/>
	<note>
		cid24841
	</note>
	<outline>
		<contour>
			<point x="976" y="790" type="line"/>
			<point x="453" y="790" type="line"/>
			<point x="453" y="648" type="line"/>
			<point x="976" y="648" type="line"/>
		</contour>
		<contour>
			<point x="831" y="81" type="curve" smooth="yes"/>
			<point x="831" y="725" type="line"/>
			<point x="675" y="725" type="line"/>
			<point x="675" y="84" type="line" smooth="yes"/>
			<point x="675" y="66"/>
			<point x="667" y="60"/>
			<point x="647" y="60" type="curve" smooth="yes"/>
			<point x="626" y="60"/>
			<point x="550" y="59"/>
			<point x="494" y="64" type="curve"/>
			<point x="517" y="23"/>
			<point x="545" y="-49"/>
			<point x="552" y="-93" type="curve"/>
			<point x="645" y="-93"/>
			<point x="713" y="-90"/>
			<point x="764" y="-65" type="curve" smooth="yes"/>
			<point x="814" y="-40"/>
			<point x="831" y="3"/>
		</contour>
		<contour>
			<point x="306" y="506" type="curve" smooth="yes"/>
			<point x="306" y="840" type="line"/>
			<point x="172" y="840" type="line"/>
			<point x="172" y="507" type="line" smooth="yes"/>
			<point x="172" y="335"/>
			<point x="156" y="145"/>
			<point x="19" y="10" type="curve"/>
			<point x="50" y="-12"/>
			<point x="98" y="-63"/>
			<point x="119" y="-95" type="curve"/>
			<point x="287" y="67"/>
			<point x="306" y="297"/>
		</contour>
		<contour>
			<point x="474" y="630" type="curve"/>
			<point x="347" y="681" type="line"/>
			<point x="331" y="616"/>
			<point x="299" y="527"/>
			<point x="272" y="469" type="curve"/>
			<point x="362" y="426" type="line"/>
			<point x="394" y="477"/>
			<point x="433" y="558"/>
		</contour>
		<contour>
			<point x="284" y="340" type="curve"/>
			<point x="186" y="264" type="line"/>
			<point x="237" y="201"/>
			<point x="321" y="89"/>
			<point x="367" y="10" type="curve"/>
			<point x="475" y="122" type="line"/>
			<point x="446" y="157"/>
			<point x="325" y="304"/>
		</contour>
		<contour>
			<point x="158" y="627" type="curve"/>
			<point x="56" y="640" type="line"/>
			<point x="58" y="554"/>
			<point x="46" y="448"/>
			<point x="19" y="389" type="curve"/>
			<point x="120" y="347" type="line"/>
			<point x="152" y="420"/>
			<point x="163" y="532"/>
		</contour>
	</outline>
</glyph>
<glyph name="uni7247" format="2">
	<advance width="1000" height="1000"/>
	<unicode hex="7247"/>
	<note>
		cid25780
	</note>
	<outline>
		<contour>
			<point x="950" y="621" type="line"/>
			<point x="227" y="621" type="line"/>
			<point x="227" y="470" type="line"/>
			<point x="950" y="470" type="line"/>
		</contour>
		<contour>
			<point x="676" y="854" type="line"/>
			<point x="518" y="854" type="line"/>
			<point x="518" y="552" type="line"/>
			<point x="676" y="552" type="line"/>
		</contour>
		<contour>
			<point x="304" y="495" type="curve" smooth="yes"/>
			<point x="304" y="836" type="line"/>
			<point x="151" y="836" type="line"/>
			<point x="151" y="496" type="line" smooth="yes"/>
			<point x="151" y="333"/>
			<point x="137" y="148"/>
			<point x="15" y="18" type="curve"/>
			<point x="50" y="-8"/>
			<point x="105" y="-66"/>
			<point x="129" y="-103" type="curve"/>
			<point x="286" y="60"/>
			<point x="304" y="289"/>
		</contour>
		<contour>
			<point x="755" y="361" type="line"/>
			<point x="224" y="361" type="line"/>
			<point x="224" y="208" type="line"/>
			<point x="594" y="208" type="line"/>
			<point x="594" y="-95" type="line"/>
			<point x="755" y="-95" type="line"/>
		</contour>
	</outline>
</glyph>
<glyph name="uni7269" format="2">
	<advance width="1000" height="1000"/>
	<unicode hex="7269"/>
	<note>
		cid25851
	</note>
	<outline>
		<contour>
			<point x="607" y="830" type="curve"/>
			<point x="476" y="855" type="line"/>
			<point x="460" y="710"/>
			<point x="410" y="566"/>
			<point x="347" y="480" type="curve"/>
			<point x="377" y="462"/>
			<point x="433" y="421"/>
			<point x="456" y="399" type="curve"/>
			<point x="523" y="489"/>
			<point x="582" y="655"/>
		</contour>
		<contour>
			<point x="974" y="676" type="curve"/>
			<point x="837" y="676" type="line"/>
			<point x="837" y="645" type="line"/>
			<point x="823" y="220"/>
			<point x="807" y="97"/>
			<point x="782" y="64" type="curve" smooth="yes"/>
			<point x="770" y="49"/>
			<point x="761" y="44"/>
			<point x="747" y="44" type="curve" smooth="yes"/>
			<point x="728" y="44"/>
			<point x="698" y="44"/>
			<point x="665" y="48" type="curve"/>
			<point x="687" y="8"/>
			<point x="702" y="-53"/>
			<point x="705" y="-94" type="curve"/>
			<point x="749" y="-95"/>
			<point x="790" y="-95"/>
			<point x="819" y="-88" type="curve" smooth="yes"/>
			<point x="854" y="-80"/>
			<point x="877" y="-67"/>
			<point x="902" y="-29" type="curve" smooth="yes"/>
			<point x="939" y="22"/>
			<point x="957" y="178"/>
			<point x="972" y="613" type="curve" smooth="yes"/>
			<point x="973" y="630"/>
			<point x="974" y="676"/>
		</contour>
		<contour>
			<point x="900" y="676" type="line"/>
			<point x="527" y="676" type="line"/>
			<point x="470" y="542" type="line"/>
			<point x="900" y="542" type="line"/>
		</contour>
		<contour>
			<point x="687" y="591" type="curve"/>
			<point x="572" y="622" type="line"/>
			<point x="529" y="382"/>
			<point x="449" y="203"/>
			<point x="349" y="122" type="curve"/>
			<point x="386" y="105"/>
			<point x="436" y="72"/>
			<point x="464" y="47" type="curve"/>
			<point x="560" y="137"/>
			<point x="640" y="332"/>
		</contour>
		<contour>
			<point x="824" y="577" type="curve"/>
			<point x="707" y="606" type="line"/>
			<point x="665" y="301"/>
			<point x="575" y="77"/>
			<point x="456" y="-20" type="curve"/>
			<point x="496" y="-39"/>
			<point x="549" y="-73"/>
			<point x="577" y="-98" type="curve"/>
			<point x="690" y="9"/>
			<point x="778" y="251"/>
		</contour>
		<contour>
			<point x="22" y="318" type="curve"/>
			<point x="56" y="179" type="line"/>
			<point x="164" y="210"/>
			<point x="302" y="250"/>
			<point x="428" y="289" type="curve"/>
			<point x="409" y="417" type="line"/>
			<point x="270" y="379"/>
			<point x="121" y="339"/>
		</contour>
		<contour>
			<point x="330" y="855" type="line"/>
			<point x="197" y="855" type="line"/>
			<point x="197" y="-95" type="line"/>
			<point x="330" y="-95" type="line"/>
		</contour>
		<contour>
			<point x="181" y="784" type="curve"/>
			<point x="61" y="804" type="line"/>
			<point x="54" y="688"/>
			<point x="39" y="564"/>
			<point x="10" y="486" type="curve"/>
			<point x="38" y="471"/>
			<point x="89" y="438"/>
			<point x="111" y="420" type="curve"/>
			<point x="146" y="510"/>
			<point x="169" y="652"/>
		</contour>
		<contour>
			<point x="402" y="674" type="line"/>
			<point x="100" y="674" type="line"/>
			<point x="72" y="536" type="line"/>
			<point x="402" y="536" type="line"/>
		</contour>
	</outline>
</glyph>
<glyph name="uni72D9" format="2">
	<advance width="1000" height="1000"/>
	<unicode hex="72D9"/>
	<note>
		cid26020
	</note>
	<outline>
		<contour>
			<point x="974" y="68" type="line"/>
			<point x="343" y="68" type="line"/>
			<point x="343" y="-66" type="line"/>
			<point x="974" y="-66" type="line"/>
		</contour>
		<contour>
			<point x="821" y="562" type="line"/>
			<point x="510" y="562" type="line"/>
			<point x="510" y="432" type="line"/>
			<point x="821" y="432" type="line"/>
		</contour>
		<contour>
			<point x="821" y="316" type="line"/>
			<point x="510" y="316" type="line"/>
			<point x="510" y="186" type="line"/>
			<point x="821" y="186" type="line"/>
		</contour>
		<contour>
			<point x="891" y="808" type="line"/>
			<point x="437" y="808" type="line"/>
			<point x="437" y="-10" type="line"/>
			<point x="577" y="-10" type="line"/>
			<point x="577" y="674" type="line"/>
			<point x="744" y="674" type="line"/>
			<point x="744" y="-10" type="line"/>
			<point x="891" y="-10" type="line"/>
		</contour>
		<contour>
			<point x="123" y="855" type="curve"/>
			<point x="22" y="777" type="line"/>
			<point x="186" y="644"/>
			<point x="216" y="498"/>
			<point x="216" y="308" type="curve" smooth="yes"/>
			<point x="216" y="188"/>
			<point x="208" y="89"/>
			<point x="188" y="63" type="curve" smooth="yes"/>
			<point x="180" y="52"/>
			<point x="171" y="46"/>
			<point x="156" y="44" type="curve" smooth="yes"/>
			<point x="135" y="42"/>
			<point x="100" y="41"/>
			<point x="48" y="45" type="curve"/>
			<point x="73" y="4"/>
			<point x="86" y="-47"/>
			<point x="86" y="-94" type="curve"/>
			<point x="138" y="-96"/>
			<point x="183" y="-95"/>
			<point x="225" y="-83" type="curve" smooth="yes"/>
			<point x="251" y="-76"/>
			<point x="275" y="-61"/>
			<point x="293" y="-38" type="curve" smooth="yes"/>
			<point x="342" y="29"/>
			<point x="353" y="167"/>
			<point x="353" y="305" type="curve" smooth="yes"/>
			<point x="353" y="506"/>
			<point x="326" y="693"/>
		</contour>
		<contour>
			<point x="335" y="424" type="curve"/>
			<point x="228" y="488" type="line"/>
			<point x="184" y="402"/>
			<point x="93" y="302"/>
			<point x="13" y="252" type="curve"/>
			<point x="47" y="226"/>
			<point x="87" y="179"/>
			<point x="110" y="145" type="curve"/>
			<point x="191" y="212"/>
			<point x="285" y="328"/>
		</contour>
		<contour>
			<point x="391" y="781" type="curve"/>
			<point x="262" y="845" type="line"/>
			<point x="206" y="734"/>
			<point x="112" y="615"/>
			<point x="12" y="546" type="curve"/>
			<point x="43" y="523"/>
			<point x="90" y="479"/>
			<point x="112" y="450" type="curve"/>
			<point x="216" y="529"/>
			<point x="318" y="651"/>
		</contour>
	</outline>
</glyph>
<glyph name="uni76AE" format="2">
	<advance width="1000" height="1000"/>
	<unicode hex="76AE"/>
	<note>
		cid27767
	</note>
	<outline>
		<contour>
			<point x="462" y="340" type="curve"/>
			<point x="326" y="302" type="line"/>
			<point x="411" y="95"/>
			<point x="610" y="-48"/>
			<point x="881" y="-96" type="curve"/>
			<point x="901" y="-54"/>
			<point x="943" y="10"/>
			<point x="975" y="43" type="curve"/>
			<point x="711" y="81"/>
			<point x="527" y="188"/>
		</contour>
		<contour>
			<point x="823" y="737" type="line"/>
			<point x="201" y="737" type="line"/>
			<point x="201" y="597" type="line"/>
			<point x="823" y="597" type="line"/>
		</contour>
		<contour>
			<point x="776" y="469" type="line"/>
			<point x="222" y="469" type="line"/>
			<point x="222" y="334" type="line"/>
			<point x="776" y="334" type="line"/>
		</contour>
		<contour>
			<point x="605" y="856" type="line"/>
			<point x="454" y="856" type="line"/>
			<point x="454" y="415" type="line"/>
			<point x="605" y="415" type="line"/>
		</contour>
		<contour>
			<point x="277" y="489" type="curve" smooth="yes"/>
			<point x="277" y="737" type="line"/>
			<point x="130" y="737" type="line"/>
			<point x="130" y="489" type="line" smooth="yes"/>
			<point x="130" y="345"/>
			<point x="119" y="142"/>
			<point x="13" y="3" type="curve"/>
			<point x="45" y="-14"/>
			<point x="108" y="-64"/>
			<point x="133" y="-91" type="curve"/>
			<point x="257" y="63"/>
			<point x="277" y="323"/>
		</contour>
		<contour>
			<point x="817" y="737" type="line"/>
			<point x="794" y="737" type="line"/>
			<point x="794" y="717" type="line"/>
			<point x="782" y="650"/>
			<point x="757" y="567"/>
			<point x="735" y="515" type="curve"/>
			<point x="871" y="479" type="line"/>
			<point x="901" y="540"/>
			<point x="935" y="631"/>
			<point x="957" y="716" type="curve"/>
			<point x="842" y="742" type="line"/>
		</contour>
		<contour>
			<point x="771" y="469" type="line"/>
			<point x="741" y="469" type="line"/>
			<point x="741" y="443" type="line"/>
			<point x="690" y="235"/>
			<point x="499" y="94"/>
			<point x="219" y="43" type="curve"/>
			<point x="247" y="13"/>
			<point x="288" y="-55"/>
			<point x="303" y="-93" type="curve"/>
			<point x="605" y="-22"/>
			<point x="817" y="163"/>
			<point x="895" y="423" type="curve"/>
			<point x="797" y="474" type="line"/>
		</contour>
	</outline>
</glyph>
<glyph name="uni79CB" format="2">
	<advance width="1000" height="1000"/>
	<unicode hex="79CB"/>
	<note>
		cid29092
	</note>
	<outline>
		<contour>
			<point x="334" y="756" type="line"/>
			<point x="193" y="756" type="line"/>
			<point x="193" y="-95" type="line"/>
			<point x="334" y="-95" type="line"/>
		</contour>
		<contour>
			<point x="442" y="573" type="line"/>
			<point x="36" y="573" type="line"/>
			<point x="36" y="440" type="line"/>
			<point x="442" y="440" type="line"/>
		</contour>
		<contour>
			<point x="282" y="477" type="curve"/>
			<point x="196" y="516" type="line"/>
			<point x="164" y="412"/>
			<point x="94" y="273"/>
			<point x="20" y="193" type="curve"/>
			<point x="43" y="155"/>
			<point x="76" y="92"/>
			<point x="89" y="49" type="curve"/>
			<point x="171" y="151"/>
			<point x="241" y="331"/>
		</contour>
		<contour>
			<point x="459" y="736" type="curve"/>
			<point x="367" y="850" type="line"/>
			<point x="280" y="814"/>
			<point x="150" y="784"/>
			<point x="30" y="766" type="curve"/>
			<point x="45" y="736"/>
			<point x="64" y="686"/>
			<point x="69" y="654" type="curve"/>
			<point x="196" y="668"/>
			<point x="343" y="694"/>
		</contour>
		<contour>
			<point x="324" y="416" type="curve"/>
			<point x="264" y="355" type="line"/>
			<point x="299" y="307"/>
			<point x="360" y="211"/>
			<point x="387" y="155" type="curve"/>
			<point x="466" y="274" type="line"/>
			<point x="446" y="297"/>
			<point x="351" y="394"/>
		</contour>
		<contour>
			<point x="753" y="463" type="curve" smooth="yes"/>
			<point x="753" y="850" type="line"/>
			<point x="680" y="850" type="line"/>
			<point x="611" y="850" type="line"/>
			<point x="611" y="463" type="line" smooth="yes"/>
			<point x="611" y="342"/>
			<point x="553" y="151"/>
			<point x="378" y="37" type="curve"/>
			<point x="409" y="0"/>
			<point x="446" y="-58"/>
			<point x="463" y="-95" type="curve"/>
			<point x="592" y="-16"/>
			<point x="663" y="140"/>
			<point x="680" y="227" type="curve"/>
			<point x="698" y="144"/>
			<point x="768" y="-15"/>
			<point x="895" y="-95" type="curve"/>
			<point x="918" y="-53"/>
			<point x="958" y="8"/>
			<point x="986" y="42" type="curve"/>
			<point x="810" y="157"/>
			<point x="753" y="342"/>
		</contour>
		<contour>
			<point x="596" y="612" type="curve"/>
			<point x="474" y="637" type="line"/>
			<point x="474" y="529"/>
			<point x="450" y="429"/>
			<point x="412" y="379" type="curve"/>
			<point x="526" y="313" type="line"/>
			<point x="566" y="373"/>
			<point x="593" y="488"/>
		</contour>
		<contour>
			<point x="966" y="590" type="curve"/>
			<point x="820" y="636" type="line"/>
			<point x="802" y="544"/>
			<point x="772" y="442"/>
			<point x="741" y="371" type="curve"/>
			<point x="853" y="330" type="line"/>
			<point x="886" y="397"/>
			<point x="930" y="497"/>
		</contour>
	</outline>
</glyph>
<glyph name="uni800C" format="2">
	<advance width="1000" height="1000"/>
	<unicode hex="800C"/>
	<note>
		cid32289
	</note>
	<outline>
		<contour>
			<point x="459" y="518" type="line"/>
			<point x="314" y="518" type="line"/>
			<point x="314" y="-85" type="line"/>
			<point x="459" y="-85" type="line"/>
		</contour>
		<contour>
			<point x="684" y="518" type="line"/>
			<point x="539" y="518" type="line"/>
			<point x="539" y="-85" type="line"/>
			<point x="684" y="-85" type="line"/>
		</contour>
		<contour>
			<point x="587" y="743" type="curve"/>
			<point x="405" y="752" type="line"/>
			<point x="402" y="669"/>
			<point x="390" y="576"/>
			<point x="374" y="512" type="curve"/>
			<point x="519" y="496" type="line"/>
			<point x="543" y="561"/>
			<point x="569" y="656"/>
		</contour>
		<contour>
			<point x="840" y="585" type="line"/>
			<point x="86" y="585" type="line"/>
			<point x="86" y="-95" type="line"/>
			<point x="236" y="-95" type="line"/>
			<point x="236" y="450" type="line"/>
			<point x="840" y="450" type="line"/>
		</contour>
		<contour>
			<point x="922" y="49" type="curve" smooth="yes"/>
			<point x="922" y="585" type="line"/>
			<point x="774" y="585" type="line"/>
			<point x="774" y="51" type="line" smooth="yes"/>
			<point x="774" y="38"/>
			<point x="769" y="34"/>
			<point x="756" y="34" type="curve" smooth="yes"/>
			<point x="744" y="34"/>
			<point x="702" y="33"/>
			<point x="671" y="35" type="curve"/>
			<point x="689" y="1"/>
			<point x="710" y="-57"/>
			<point x="716" y="-95" type="curve"/>
			<point x="781" y="-95"/>
			<point x="831" y="-92"/>
			<point x="871" y="-71" type="curve" smooth="yes"/>
			<point x="911" y="-49"/>
			<point x="922" y="-14"/>
		</contour>
		<contour>
			<point x="961" y="817" type="line"/>
			<point x="42" y="817" type="line"/>
			<point x="42" y="669" type="line"/>
			<point x="961" y="669" type="line"/>
		</contour>
	</outline>
</glyph>
<glyph name="uni8010" format="2">
	<advance width="1000" height="1000"/>
	<unicode hex="8010"/>
	<note>
		cid32296
	</note>
	<outline>
		<contour>
			<point x="590" y="814" type="line"/>
			<point x="29" y="814" type="line"/>
			<point x="29" y="675" type="line"/>
			<point x="590" y="675" type="line"/>
		</contour>
		<contour>
			<point x="490" y="577" type="line"/>
			<point x="49" y="577" type="line"/>
			<point x="49" y="-95" type="line"/>
			<point x="165" y="-95" type="line"/>
			<point x="165" y="453" type="line"/>
			<point x="490" y="453" type="line"/>
		</contour>
		<contour>
			<point x="570" y="26" type="curve" smooth="yes"/>
			<point x="570" y="577" type="line"/>
			<point x="453" y="577" type="line"/>
			<point x="453" y="28" type="line" smooth="yes"/>
			<point x="453" y="19"/>
			<point x="449" y="16"/>
			<point x="444" y="16" type="curve" smooth="yes"/>
			<point x="439" y="16"/>
			<point x="429" y="16"/>
			<point x="411" y="17" type="curve"/>
			<point x="424" y="-13"/>
			<point x="437" y="-63"/>
			<point x="440" y="-95" type="curve"/>
			<point x="482" y="-95"/>
			<point x="513" y="-92"/>
			<point x="539" y="-73" type="curve" smooth="yes"/>
			<point x="565" y="-54"/>
			<point x="570" y="-23"/>
		</contour>
		<contour>
			<point x="291" y="534" type="line"/>
			<point x="198" y="534" type="line"/>
			<point x="198" y="-85" type="line"/>
			<point x="291" y="-85" type="line"/>
		</contour>
		<contour>
			<point x="418" y="534" type="line"/>
			<point x="325" y="534" type="line"/>
			<point x="325" y="-85" type="line"/>
			<point x="418" y="-85" type="line"/>
		</contour>
		<contour>
			<point x="388" y="748" type="curve"/>
			<point x="225" y="756" type="line"/>
			<point x="221" y="690"/>
			<point x="209" y="611"/>
			<point x="194" y="551" type="curve"/>
			<point x="326" y="536" type="line"/>
			<point x="348" y="593"/>
			<point x="372" y="675"/>
		</contour>
		<contour>
			<point x="975" y="617" type="line"/>
			<point x="585" y="617" type="line"/>
			<point x="585" y="482" type="line"/>
			<point x="975" y="482" type="line"/>
		</contour>
		<contour>
			<point x="905" y="61" type="curve" smooth="yes"/>
			<point x="905" y="848" type="line"/>
			<point x="765" y="848" type="line"/>
			<point x="765" y="62" type="line" smooth="yes"/>
			<point x="765" y="46"/>
			<point x="759" y="40"/>
			<point x="742" y="40" type="curve" smooth="yes"/>
			<point x="725" y="40"/>
			<point x="674" y="40"/>
			<point x="626" y="42" type="curve"/>
			<point x="646" y="5"/>
			<point x="669" y="-57"/>
			<point x="675" y="-96" type="curve"/>
			<point x="753" y="-96"/>
			<point x="811" y="-90"/>
			<point x="852" y="-68" type="curve" smooth="yes"/>
			<point x="892" y="-45"/>
			<point x="905" y="-8"/>
		</contour>
		<contour>
			<point x="698" y="421" type="curve"/>
			<point x="579" y="381" type="line"/>
			<point x="611" y="308"/>
			<point x="638" y="215"/>
			<point x="642" y="156" type="curve"/>
			<point x="770" y="201" type="line"/>
			<point x="764" y="262"/>
			<point x="733" y="351"/>
		</contour>
	</outline>
</glyph>
<glyph name="uni9175" format="2">
	<advance width="1000" height="1000"/>
	<unicode hex="9175"/>
	<note>
		cid41017
	</note>
	<outline>
		<contour>
			<point x="731" y="855" type="line"/>
			<point x="603" y="855" type="line"/>
			<point x="603" y="508" type="line"/>
			<point x="731" y="508" type="line"/>
		</contour>
		<contour>
			<point x="970" y="210" type="line"/>
			<point x="504" y="210" type="line"/>
			<point x="504" y="90" type="line"/>
			<point x="970" y="90" type="line"/>
		</contour>
		<contour>
			<point x="819" y="762" type="line"/>
			<point x="516" y="762" type="line"/>
			<point x="516" y="644" type="line"/>
			<point x="819" y="644" type="line"/>
		</contour>
		<contour>
			<point x="975" y="581" type="line"/>
			<point x="492" y="581" type="line"/>
			<point x="492" y="459" type="line"/>
			<point x="975" y="459" type="line"/>
		</contour>
		<contour>
			<point x="849" y="411" type="line"/>
			<point x="533" y="411" type="line"/>
			<point x="533" y="298" type="line"/>
			<point x="849" y="298" type="line"/>
		</contour>
		<contour>
			<point x="803" y="47" type="curve" smooth="yes"/>
			<point x="803" y="266" type="line"/>
			<point x="669" y="266" type="line"/>
			<point x="669" y="51" type="line" smooth="yes"/>
			<point x="669" y="41"/>
			<point x="665" y="38"/>
			<point x="654" y="38" type="curve" smooth="yes"/>
			<point x="642" y="38"/>
			<point x="601" y="38"/>
			<point x="570" y="39" type="curve"/>
			<point x="585" y="2"/>
			<point x="602" y="-51"/>
			<point x="606" y="-90" type="curve"/>
			<point x="667" y="-90"/>
			<point x="715" y="-89"/>
			<point x="754" y="-70" type="curve" smooth="yes"/>
			<point x="795" y="-49"/>
			<point x="803" y="-14"/>
		</contour>
		<contour>
			<point x="828" y="411" type="line"/>
			<point x="799" y="411" type="line"/>
			<point x="799" y="387" type="line"/>
			<point x="772" y="341"/>
			<point x="725" y="290"/>
			<point x="676" y="254" type="curve"/>
			<point x="697" y="233"/>
			<point x="726" y="199"/>
			<point x="740" y="178" type="curve"/>
			<point x="807" y="215"/>
			<point x="884" y="282"/>
			<point x="938" y="353" type="curve"/>
			<point x="857" y="417" type="line"/>
		</contour>
		<contour>
			<point x="980" y="777" type="curve"/>
			<point x="860" y="814" type="line"/>
			<point x="779" y="593"/>
			<point x="630" y="416"/>
			<point x="436" y="316" type="curve"/>
			<point x="463" y="292"/>
			<point x="509" y="241"/>
			<point x="527" y="215" type="curve"/>
			<point x="722" y="333"/>
			<point x="884" y="530"/>
		</contour>
		<contour>
			<point x="477" y="614" type="line"/>
			<point x="52" y="614" type="line"/>
			<point x="52" y="-94" type="line"/>
			<point x="159" y="-94" type="line"/>
			<point x="159" y="495" type="line"/>
			<point x="364" y="495" type="line"/>
			<point x="364" y="-80" type="line"/>
			<point x="477" y="-80" type="line"/>
		</contour>
		<contour>
			<point x="425" y="227" type="line"/>
			<point x="100" y="227" type="line"/>
			<point x="100" y="119" type="line"/>
			<point x="425" y="119" type="line"/>
		</contour>
		<contour>
			<point x="425" y="80" type="line"/>
			<point x="100" y="80" type="line"/>
			<point x="100" y="-31" type="line"/>
			<point x="425" y="-31" type="line"/>
		</contour>
		<contour>
			<point x="480" y="817" type="line"/>
			<point x="42" y="817" type="line"/>
			<point x="42" y="698" type="line"/>
			<point x="480" y="698" type="line"/>
		</contour>
		<contour>
			<point x="249" y="780" type="line"/>
			<point x="157" y="780" type="line"/>
			<point x="157" y="523" type="line"/>
			<point x="249" y="523" type="line"/>
		</contour>
		<contour>
			<point x="369" y="780" type="line"/>
			<point x="275" y="780" type="line"/>
			<point x="275" y="523" type="line"/>
			<point x="369" y="523" type="line"/>
		</contour>
		<contour>
			<point x="250" y="426" type="curve" smooth="yes"/>
			<point x="250" y="524" type="line"/>
			<point x="184" y="524" type="line"/>
			<point x="184" y="428" type="line" smooth="yes"/>
			<point x="184" y="387"/>
			<point x="182" y="341"/>
			<point x="151" y="302" type="curve"/>
			<point x="165" y="294"/>
			<point x="193" y="271"/>
			<point x="204" y="258" type="curve"/>
			<point x="243" y="304"/>
			<point x="250" y="373"/>
		</contour>
		<contour>
			<point x="340" y="385" type="curve" smooth="yes"/>
			<point x="340" y="524" type="line"/>
			<point x="274" y="524" type="line"/>
			<point x="274" y="383" type="line" smooth="yes"/>
			<point x="274" y="317"/>
			<point x="287" y="300"/>
			<point x="336" y="300" type="curve" smooth="yes"/>
			<point x="345" y="300"/>
			<point x="353" y="300"/>
			<point x="362" y="300" type="curve" smooth="yes"/>
			<point x="396" y="300"/>
			<point x="416" y="313"/>
			<point x="425" y="347" type="curve"/>
			<point x="404" y="352"/>
			<point x="377" y="362"/>
			<point x="365" y="374" type="curve"/>
			<point x="363" y="371"/>
			<point x="361" y="370"/>
			<point x="351" y="370" type="curve" smooth="yes"/>
			<point x="349" y="370"/>
			<point x="348" y="370"/>
			<point x="346" y="370" type="curve" smooth="yes"/>
			<point x="341" y="370"/>
			<point x="340" y="371"/>
		</contour>
	</outline>
</glyph>
<glyph name="uni9633" format="2">
	<advance width="1000" height="1000"/>
	<unicode hex="9633"/>
	<note>
		cid43094
	</note>
	<outline>
		<contour>
			<point x="939" y="807" type="line"/>
			<point x="442" y="807" type="line"/>
			<point x="442" y="-95" type="line"/>
			<point x="582" y="-95" type="line"/>
			<point x="582" y="670" type="line"/>
			<point x="792" y="670" type="line"/>
			<point x="792" y="-86" type="line"/>
			<point x="939" y="-86" type="line"/>
		</contour>
		<contour>
			<point x="877" y="109" type="line"/>
			<point x="534" y="109" type="line"/>
			<point x="534" y="-28" type="line"/>
			<point x="877" y="-28" type="line"/>
		</contour>
		<contour>
			<point x="871" y="460" type="line"/>
			<point x="528" y="460" type="line"/>
			<point x="528" y="327" type="line"/>
			<point x="871" y="327" type="line"/>
		</contour>
		<contour>
			<point x="318" y="812" type="line"/>
			<point x="68" y="812" type="line"/>
			<point x="68" y="-96" type="line"/>
			<point x="207" y="-96" type="line"/>
			<point x="207" y="683" type="line"/>
			<point x="318" y="683" type="line"/>
		</contour>
		<contour>
			<point x="302" y="812" type="line"/>
			<point x="277" y="812" type="line"/>
			<point x="277" y="765" type="line"/>
			<point x="270" y="707"/>
			<point x="243" y="574"/>
			<point x="214" y="461" type="curve"/>
			<point x="261" y="399"/>
			<point x="271" y="338"/>
			<point x="271" y="296" type="curve" smooth="yes"/>
			<point x="271" y="268"/>
			<point x="266" y="252"/>
			<point x="256" y="244" type="curve" smooth="yes"/>
			<point x="249" y="238"/>
			<point x="239" y="236"/>
			<point x="229" y="236" type="curve" smooth="yes"/>
			<point x="219" y="236"/>
			<point x="210" y="236"/>
			<point x="195" y="238" type="curve"/>
			<point x="216" y="200"/>
			<point x="226" y="142"/>
			<point x="227" y="104" type="curve"/>
			<point x="252" y="103"/>
			<point x="275" y="104"/>
			<point x="293" y="107" type="curve" smooth="yes"/>
			<point x="317" y="111"/>
			<point x="338" y="119"/>
			<point x="355" y="131" type="curve" smooth="yes"/>
			<point x="391" y="157"/>
			<point x="406" y="200"/>
			<point x="406" y="274" type="curve" smooth="yes"/>
			<point x="406" y="331"/>
			<point x="397" y="401"/>
			<point x="342" y="476" type="curve"/>
			<point x="370" y="558"/>
			<point x="402" y="667"/>
			<point x="425" y="759" type="curve"/>
			<point x="323" y="817" type="line"/>
		</contour>
	</outline>
</glyph>
<glyph name="uni9634" format="2">
	<advance width="1000" height="1000"/>
	<unicode hex="9634"/>
	<note>
		cid43095
	</note>
	<outline>
		<contour>
			<point x="318" y="812" type="line"/>
			<point x="68" y="812" type="line"/>
			<point x="68" y="-96" type="line"/>
			<point x="207" y="-96" type="line"/>
			<point x="207" y="683" type="line"/>
			<point x="318" y="683" type="line"/>
		</contour>
		<contour>
			<point x="302" y="812" type="line"/>
			<point x="277" y="812" type="line"/>
			<point x="277" y="765" type="line"/>
			<point x="270" y="707"/>
			<point x="243" y="574"/>
			<point x="214" y="461" type="curve"/>
			<point x="261" y="399"/>
			<point x="271" y="338"/>
			<point x="271" y="296" type="curve" smooth="yes"/>
			<point x="271" y="268"/>
			<point x="266" y="252"/>
			<point x="256" y="244" type="curve" smooth="yes"/>
			<point x="249" y="238"/>
			<point x="239" y="236"/>
			<point x="229" y="236" type="curve" smooth="yes"/>
			<point x="219" y="236"/>
			<point x="210" y="236"/>
			<point x="195" y="238" type="curve"/>
			<point x="216" y="200"/>
			<point x="226" y="142"/>
			<point x="227" y="104" type="curve"/>
			<point x="252" y="103"/>
			<point x="275" y="104"/>
			<point x="293" y="107" type="curve" smooth="yes"/>
			<point x="317" y="111"/>
			<point x="338" y="119"/>
			<point x="355" y="131" type="curve" smooth="yes"/>
			<point x="391" y="157"/>
			<point x="406" y="200"/>
			<point x="406" y="274" type="curve" smooth="yes"/>
			<point x="406" y="331"/>
			<point x="397" y="401"/>
			<point x="342" y="476" type="curve"/>
			<point x="370" y="558"/>
			<point x="402" y="667"/>
			<point x="425" y="759" type="curve"/>
			<point x="323" y="817" type="line"/>
		</contour>
		<contour>
			<point x="855" y="814" type="line"/>
			<point x="548" y="814" type="line"/>
			<point x="548" y="680" type="line"/>
			<point x="855" y="680" type="line"/>
		</contour>
		<contour>
			<point x="855" y="578" type="line"/>
			<point x="548" y="578" type="line"/>
			<point x="548" y="448" type="line"/>
			<point x="855" y="448" type="line"/>
		</contour>
		<contour>
			<point x="855" y="346" type="line"/>
			<point x="548" y="346" type="line"/>
			<point x="548" y="216" type="line"/>
			<point x="855" y="216" type="line"/>
		</contour>
		<contour>
			<point x="942" y="60" type="curve" smooth="yes"/>
			<point x="942" y="814" type="line"/>
			<point x="800" y="814" type="line"/>
			<point x="800" y="62" type="line" smooth="yes"/>
			<point x="800" y="47"/>
			<point x="788" y="41"/>
			<point x="764" y="41" type="curve" smooth="yes"/>
			<point x="740" y="41"/>
			<point x="695" y="41"/>
			<point x="653" y="44" type="curve"/>
			<point x="674" y="4"/>
			<point x="695" y="-57"/>
			<point x="701" y="-95" type="curve"/>
			<point x="782" y="-95"/>
			<point x="842" y="-92"/>
			<point x="886" y="-69" type="curve" smooth="yes"/>
			<point x="930" y="-46"/>
			<point x="942" y="-7"/>
		</contour>
		<contour>
			<point x="604" y="447" type="curve" smooth="yes"/>
			<point x="604" y="814" type="line"/>
			<point x="465" y="814" type="line"/>
			<point x="465" y="447" type="line" smooth="yes"/>
			<point x="465" y="300"/>
			<point x="460" y="125"/>
			<point x="298" y="0" type="curve"/>
			<point x="329" y="-20"/>
			<point x="383" y="-69"/>
			<point x="403" y="-96" type="curve"/>
			<point x="585" y="47"/>
			<point x="604" y="278"/>
		</contour>
	</outline>
</glyph>
<glyph name="uni9ED1" format="2">
	<advance width="1000" height="1000"/>
	<unicode hex="9ED1"/>
	<note>
		cid47019
	</note>
	<outline>
		<contour>
			<point x="284" y="533" type="line"/>
			<point x="284" y="708" type="line"/>
			<point x="710" y="708" type="line"/>
			<point x="710" y="533" type="line"/>
		</contour>
		<contour>
			<point x="857" y="824" type="line"/>
			<point x="146" y="824" type="line"/>
			<point x="146" y="417" type="line"/>
			<point x="857" y="417" type="line"/>
		</contour>
		<contour>
			<point x="374" y="700" type="curve"/>
			<point x="286" y="669" type="line"/>
			<point x="307" y="627"/>
			<point x="325" y="571"/>
			<point x="329" y="536" type="curve"/>
			<point x="423" y="571" type="line"/>
			<point x="417" y="607"/>
			<point x="397" y="660"/>
		</contour>
		<contour>
			<point x="874" y="390" type="line"/>
			<point x="129" y="390" type="line"/>
			<point x="129" y="275" type="line"/>
			<point x="874" y="275" type="line"/>
		</contour>
		<contour>
			<point x="951" y="248" type="line"/>
			<point x="50" y="248" type="line"/>
			<point x="50" y="126" type="line"/>
			<point x="951" y="126" type="line"/>
		</contour>
		<contour>
			<point x="570" y="776" type="line"/>
			<point x="424" y="776" type="line"/>
			<point x="424" y="182" type="line"/>
			<point x="570" y="182" type="line"/>
		</contour>
		<contour>
			<point x="720" y="665" type="curve"/>
			<point x="619" y="707" type="line"/>
			<point x="605" y="659"/>
			<point x="583" y="606"/>
			<point x="562" y="570" type="curve"/>
			<point x="642" y="531" type="line"/>
			<point x="666" y="566"/>
			<point x="696" y="617"/>
		</contour>
		<contour>
			<point x="456" y="96" type="curve"/>
			<point x="320" y="83" type="line"/>
			<point x="328" y="27"/>
			<point x="331" y="-45"/>
			<point x="330" y="-89" type="curve"/>
			<point x="474" y="-72" type="line"/>
			<point x="474" y="-29"/>
			<point x="466" y="42"/>
		</contour>
		<contour>
			<point x="654" y="106" type="curve"/>
			<point x="516" y="78" type="line"/>
			<point x="534" y="24"/>
			<point x="552" y="-47"/>
			<point x="557" y="-90" type="curve"/>
			<point x="704" y="-57" type="line"/>
			<point x="697" y="-13"/>
			<point x="675" y="54"/>
		</contour>
		<contour>
			<point x="847" y="129" type="curve"/>
			<point x="710" y="85" type="line"/>
			<point x="751" y="28"/>
			<point x="801" y="-51"/>
			<point x="820" y="-100" type="curve"/>
			<point x="967" y="-50" type="line"/>
			<point x="943" y="1"/>
			<point x="889" y="75"/>
		</contour>
		<contour>
			<point x="283" y="92" type="curve"/>
			<point x="139" y="127" type="line"/>
			<point x="117" y="64"/>
			<point x="77" y="-3"/>
			<point x="36" y="-39" type="curve"/>
			<point x="177" y="-99" type="line"/>
			<point x="222" y="-51"/>
			<point x="262" y="23"/>
		</contour>
	</outline>
</glyph>
